<?xml version="1.0" encoding="UTF-8"?>
<svg version="1.1" xmlns="http://www.w3.org/2000/svg" width="200" height="192">
<path d="M0 0 C2.22456098 0.01072783 4.44831479 0.00003872 6.67285156 -0.01269531 C15.02079731 -0.0196473 23.03237944 0.52775805 31.22753906 2.26074219 C31.22753906 2.92074219 31.22753906 3.58074219 31.22753906 4.26074219 C33.86753906 4.59074219 36.50753906 4.92074219 39.22753906 5.26074219 C39.22753906 5.92074219 39.22753906 6.58074219 39.22753906 7.26074219 C41.53753906 7.59074219 43.84753906 7.92074219 46.22753906 8.26074219 C46.22753906 8.92074219 46.22753906 9.58074219 46.22753906 10.26074219 C47.58878906 10.41542969 47.58878906 10.41542969 48.97753906 10.57324219 C52.2582575 11.26724032 53.83643001 11.96159887 56.22753906 14.26074219 C56.22753906 14.92074219 56.22753906 15.58074219 56.22753906 16.26074219 C57.54753906 16.59074219 58.86753906 16.92074219 60.22753906 17.26074219 C60.22753906 17.92074219 60.22753906 18.58074219 60.22753906 19.26074219 C61.21753906 19.26074219 62.20753906 19.26074219 63.22753906 19.26074219 C64.91503906 20.63574219 64.91503906 20.63574219 66.22753906 22.26074219 C66.22753906 22.92074219 66.22753906 23.58074219 66.22753906 24.26074219 C66.78441406 24.48761719 67.34128906 24.71449219 67.91503906 24.94824219 C70.88913494 26.63624255 72.94762771 28.72750735 75.22753906 31.26074219 C75.22753906 31.92074219 75.22753906 32.58074219 75.22753906 33.26074219 C76.21753906 33.59074219 77.20753906 33.92074219 78.22753906 34.26074219 C79.25767184 35.90895463 80.25868535 37.5757792 81.22753906 39.26074219 C81.88753906 39.59074219 82.54753906 39.92074219 83.22753906 40.26074219 C86.22753906 45.68381911 86.22753906 45.68381911 86.22753906 48.26074219 C86.88753906 48.26074219 87.54753906 48.26074219 88.22753906 48.26074219 C88.90221468 50.00767013 89.56698062 51.75842744 90.22753906 53.51074219 C90.59878906 54.48527344 90.97003906 55.45980469 91.35253906 56.46386719 C92.22753906 59.26074219 92.22753906 59.26074219 92.22753906 63.26074219 C92.88753906 63.26074219 93.54753906 63.26074219 94.22753906 63.26074219 C96.20985554 71.7047782 96.538859 79.96194297 96.48828125 88.58544922 C96.47755534 90.75744533 96.48823773 92.9286147 96.50097656 95.10058594 C96.50772266 102.99622067 96.04023749 110.53922498 94.22753906 118.26074219 C93.56753906 118.26074219 92.90753906 118.26074219 92.22753906 118.26074219 C92.07285156 120.02417969 92.07285156 120.02417969 91.91503906 121.82324219 C91.39838948 126.08560122 90.07670296 129.40161753 88.22753906 133.26074219 C87.56753906 133.26074219 86.90753906 133.26074219 86.22753906 133.26074219 C85.15228712 135.91303031 84.13297755 138.54442673 83.22753906 141.26074219 C81.91553502 142.61506894 80.58122503 143.94807701 79.22753906 145.26074219 C78.56753906 146.25074219 77.90753906 147.24074219 77.22753906 148.26074219 C76.56753906 148.26074219 75.90753906 148.26074219 75.22753906 148.26074219 C75.00066406 148.81761719 74.77378906 149.37449219 74.54003906 149.94824219 C72.8520387 152.92233806 70.7607739 154.98083084 68.22753906 157.26074219 C67.56753906 157.26074219 66.90753906 157.26074219 66.22753906 157.26074219 C66.22753906 157.92074219 66.22753906 158.58074219 66.22753906 159.26074219 C64.91503906 160.88574219 64.91503906 160.88574219 63.22753906 162.26074219 C62.23753906 162.26074219 61.24753906 162.26074219 60.22753906 162.26074219 C60.22753906 162.92074219 60.22753906 163.58074219 60.22753906 164.26074219 C58.90753906 164.59074219 57.58753906 164.92074219 56.22753906 165.26074219 C56.22753906 165.92074219 56.22753906 166.58074219 56.22753906 167.26074219 C49.60253906 171.26074219 49.60253906 171.26074219 46.22753906 171.26074219 C46.22753906 171.92074219 46.22753906 172.58074219 46.22753906 173.26074219 C43.91753906 173.59074219 41.60753906 173.92074219 39.22753906 174.26074219 C39.22753906 174.92074219 39.22753906 175.58074219 39.22753906 176.26074219 C36.58753906 176.59074219 33.94753906 176.92074219 31.22753906 177.26074219 C31.22753906 177.92074219 31.22753906 178.58074219 31.22753906 179.26074219 C22.3499186 181.40681894 13.69347999 181.56988036 4.62109375 181.52148438 C2.23183825 181.51076148 -0.15666564 181.5214345 -2.54589844 181.53417969 C-10.82373794 181.5406246 -18.67629022 181.21791121 -26.77246094 179.26074219 C-26.77246094 178.60074219 -26.77246094 177.94074219 -26.77246094 177.26074219 C-29.41246094 176.93074219 -32.05246094 176.60074219 -34.77246094 176.26074219 C-34.77246094 175.60074219 -34.77246094 174.94074219 -34.77246094 174.26074219 C-37.08246094 173.93074219 -39.39246094 173.60074219 -41.77246094 173.26074219 C-41.77246094 172.60074219 -41.77246094 171.94074219 -41.77246094 171.26074219 C-43.13371094 171.10605469 -43.13371094 171.10605469 -44.52246094 170.94824219 C-47.80317937 170.25424406 -49.38135188 169.55988551 -51.77246094 167.26074219 C-51.77246094 166.60074219 -51.77246094 165.94074219 -51.77246094 165.26074219 C-53.09246094 164.93074219 -54.41246094 164.60074219 -55.77246094 164.26074219 C-55.77246094 163.60074219 -55.77246094 162.94074219 -55.77246094 162.26074219 C-56.76246094 162.26074219 -57.75246094 162.26074219 -58.77246094 162.26074219 C-60.45996094 160.88574219 -60.45996094 160.88574219 -61.77246094 159.26074219 C-61.77246094 158.60074219 -61.77246094 157.94074219 -61.77246094 157.26074219 C-62.60777344 156.92042969 -62.60777344 156.92042969 -63.45996094 156.57324219 C-66.43405681 154.88524183 -68.49254959 152.79397702 -70.77246094 150.26074219 C-70.77246094 149.60074219 -70.77246094 148.94074219 -70.77246094 148.26074219 C-71.76246094 147.93074219 -72.75246094 147.60074219 -73.77246094 147.26074219 C-74.80259371 145.61252975 -75.80360722 143.94570517 -76.77246094 142.26074219 C-77.43246094 141.93074219 -78.09246094 141.60074219 -78.77246094 141.26074219 C-81.77246094 135.83766526 -81.77246094 135.83766526 -81.77246094 133.26074219 C-82.43246094 133.26074219 -83.09246094 133.26074219 -83.77246094 133.26074219 C-84.44713656 131.51381424 -85.1119025 129.76305694 -85.77246094 128.01074219 C-86.14371094 127.03621094 -86.51496094 126.06167969 -86.89746094 125.05761719 C-87.77246094 122.26074219 -87.77246094 122.26074219 -87.77246094 118.26074219 C-88.43246094 118.26074219 -89.09246094 118.26074219 -89.77246094 118.26074219 C-91.75477741 109.81670617 -92.08378087 101.55954141 -92.03320312 92.93603516 C-92.02247722 90.76403905 -92.0331596 88.59286968 -92.04589844 86.42089844 C-92.05264454 78.52526371 -91.58515936 70.9822594 -89.77246094 63.26074219 C-89.11246094 63.26074219 -88.45246094 63.26074219 -87.77246094 63.26074219 C-87.61777344 61.49730469 -87.61777344 61.49730469 -87.45996094 59.69824219 C-86.94331136 55.43588316 -85.62162483 52.11986684 -83.77246094 48.26074219 C-83.11246094 48.26074219 -82.45246094 48.26074219 -81.77246094 48.26074219 C-80.697209 45.60845407 -79.67789942 42.97705765 -78.77246094 40.26074219 C-77.4604569 38.90641544 -76.1261469 37.57340736 -74.77246094 36.26074219 C-74.11246094 35.27074219 -73.45246094 34.28074219 -72.77246094 33.26074219 C-72.11246094 33.26074219 -71.45246094 33.26074219 -70.77246094 33.26074219 C-70.54558594 32.70386719 -70.31871094 32.14699219 -70.08496094 31.57324219 C-68.39696058 28.59914631 -66.30569577 26.54065354 -63.77246094 24.26074219 C-63.11246094 24.26074219 -62.45246094 24.26074219 -61.77246094 24.26074219 C-61.77246094 23.60074219 -61.77246094 22.94074219 -61.77246094 22.26074219 C-60.45996094 20.63574219 -60.45996094 20.63574219 -58.77246094 19.26074219 C-57.78246094 19.26074219 -56.79246094 19.26074219 -55.77246094 19.26074219 C-55.77246094 18.60074219 -55.77246094 17.94074219 -55.77246094 17.26074219 C-54.45246094 16.93074219 -53.13246094 16.60074219 -51.77246094 16.26074219 C-51.77246094 15.60074219 -51.77246094 14.94074219 -51.77246094 14.26074219 C-45.14746094 10.26074219 -45.14746094 10.26074219 -41.77246094 10.26074219 C-41.77246094 9.60074219 -41.77246094 8.94074219 -41.77246094 8.26074219 C-38.30746094 7.76574219 -38.30746094 7.76574219 -34.77246094 7.26074219 C-34.77246094 6.60074219 -34.77246094 5.94074219 -34.77246094 5.26074219 C-32.13246094 4.93074219 -29.49246094 4.60074219 -26.77246094 4.26074219 C-26.77246094 3.60074219 -26.77246094 2.94074219 -26.77246094 2.26074219 C-17.83204744 0.37016342 -9.09658963 -0.05207207 0 0 Z " fill="#0B0B0B" transform="translate(97.7724609375,5.7392578125)"/>
<path d="M0 0 C2.22456098 0.01072783 4.44831479 0.00003872 6.67285156 -0.01269531 C15.02079731 -0.0196473 23.03237944 0.52775805 31.22753906 2.26074219 C31.22753906 2.92074219 31.22753906 3.58074219 31.22753906 4.26074219 C33.86753906 4.59074219 36.50753906 4.92074219 39.22753906 5.26074219 C39.22753906 5.92074219 39.22753906 6.58074219 39.22753906 7.26074219 C41.53753906 7.59074219 43.84753906 7.92074219 46.22753906 8.26074219 C46.22753906 8.92074219 46.22753906 9.58074219 46.22753906 10.26074219 C47.58878906 10.41542969 47.58878906 10.41542969 48.97753906 10.57324219 C52.2582575 11.26724032 53.83643001 11.96159887 56.22753906 14.26074219 C56.22753906 14.92074219 56.22753906 15.58074219 56.22753906 16.26074219 C57.54753906 16.59074219 58.86753906 16.92074219 60.22753906 17.26074219 C60.22753906 17.92074219 60.22753906 18.58074219 60.22753906 19.26074219 C61.21753906 19.26074219 62.20753906 19.26074219 63.22753906 19.26074219 C64.91503906 20.63574219 64.91503906 20.63574219 66.22753906 22.26074219 C66.22753906 22.92074219 66.22753906 23.58074219 66.22753906 24.26074219 C66.78441406 24.48761719 67.34128906 24.71449219 67.91503906 24.94824219 C70.88913494 26.63624255 72.94762771 28.72750735 75.22753906 31.26074219 C75.22753906 31.92074219 75.22753906 32.58074219 75.22753906 33.26074219 C76.21753906 33.59074219 77.20753906 33.92074219 78.22753906 34.26074219 C79.25767184 35.90895463 80.25868535 37.5757792 81.22753906 39.26074219 C81.88753906 39.59074219 82.54753906 39.92074219 83.22753906 40.26074219 C86.22753906 45.68381911 86.22753906 45.68381911 86.22753906 48.26074219 C86.88753906 48.26074219 87.54753906 48.26074219 88.22753906 48.26074219 C88.90221468 50.00767013 89.56698062 51.75842744 90.22753906 53.51074219 C90.59878906 54.48527344 90.97003906 55.45980469 91.35253906 56.46386719 C92.22753906 59.26074219 92.22753906 59.26074219 92.22753906 63.26074219 C92.88753906 63.26074219 93.54753906 63.26074219 94.22753906 63.26074219 C96.20985554 71.7047782 96.538859 79.96194297 96.48828125 88.58544922 C96.47755534 90.75744533 96.48823773 92.9286147 96.50097656 95.10058594 C96.50772266 102.99622067 96.04023749 110.53922498 94.22753906 118.26074219 C93.56753906 118.26074219 92.90753906 118.26074219 92.22753906 118.26074219 C92.07285156 120.02417969 92.07285156 120.02417969 91.91503906 121.82324219 C91.39838948 126.08560122 90.07670296 129.40161753 88.22753906 133.26074219 C87.56753906 133.26074219 86.90753906 133.26074219 86.22753906 133.26074219 C85.15228712 135.91303031 84.13297755 138.54442673 83.22753906 141.26074219 C81.6042094 142.64651141 79.94029442 143.98715487 78.22753906 145.26074219 C77.65187784 139.87195607 77.08244368 134.48256001 76.51855469 129.0925293 C76.32621899 127.26227441 76.13223782 125.4321916 75.93652344 123.60229492 C75.65410464 120.95894145 75.37777884 118.31500793 75.10253906 115.67089844 C74.97129639 114.4609597 74.97129639 114.4609597 74.83740234 113.22657776 C74.28823742 107.87688133 74.15235289 102.63890277 74.22753906 97.26074219 C73.56753906 97.26074219 72.90753906 97.26074219 72.22753906 97.26074219 C70.35117086 87.61927793 68.8904058 78.26637639 68.53613281 68.43261719 C68.23241715 65.31088149 67.46831313 63.11303954 66.22753906 60.26074219 C66.10253906 57.44824219 66.10253906 57.44824219 66.22753906 55.26074219 C65.56753906 55.26074219 64.90753906 55.26074219 64.22753906 55.26074219 C64.06898438 54.29652344 63.91042969 53.33230469 63.74707031 52.33886719 C63.51375 51.07558594 63.28042969 49.81230469 63.04003906 48.51074219 C62.81960937 47.25777344 62.59917969 46.00480469 62.37207031 44.71386719 C61.01007724 40.60464577 59.812405 39.59029628 56.22753906 37.26074219 C51.92436681 36.4385498 47.60109468 36.61176436 43.22753906 36.63574219 C41.46410156 36.58740234 41.46410156 36.58740234 39.66503906 36.53808594 C33.74295757 36.38196669 33.74295757 36.38196669 28.36547852 38.45166016 C25.74865542 41.4110544 24.38560399 44.85564721 23.41503906 48.63574219 C23.18171875 49.50972656 22.94839844 50.38371094 22.70800781 51.28417969 C22.47017578 52.26257812 22.47017578 52.26257812 22.22753906 53.26074219 C21.56753906 53.26074219 20.90753906 53.26074219 20.22753906 53.26074219 C20.12441406 54.29199219 20.02128906 55.32324219 19.91503906 56.38574219 C19.22753906 60.26074219 19.22753906 60.26074219 17.81347656 63.08105469 C15.66874424 67.38108451 14.502538 71.82339652 13.19238281 76.43261719 C12.22753906 79.26074219 12.22753906 79.26074219 10.22753906 81.26074219 C9.76463685 83.9231704 9.76463685 83.9231704 9.60253906 86.88574219 C9.52777344 87.88863281 9.45300781 88.89152344 9.37597656 89.92480469 C9.3025 91.08109375 9.3025 91.08109375 9.22753906 92.26074219 C8.56753906 92.26074219 7.90753906 92.26074219 7.22753906 92.26074219 C7.11796875 92.95039062 7.00839844 93.64003906 6.89550781 94.35058594 C5.84870637 100.55479935 4.41288229 106.36031547 2.22753906 112.26074219 C1.56753906 112.26074219 0.90753906 112.26074219 0.22753906 112.26074219 C-0.61232177 110.32606276 -1.4441412 108.3878909 -2.27246094 106.44824219 C-2.96855469 104.82982422 -2.96855469 104.82982422 -3.67871094 103.17871094 C-4.77246094 100.26074219 -4.77246094 100.26074219 -4.77246094 97.26074219 C-5.43246094 97.26074219 -6.09246094 97.26074219 -6.77246094 97.26074219 C-6.77246094 96.27074219 -6.77246094 95.28074219 -6.77246094 94.26074219 C-7.43246094 94.26074219 -8.09246094 94.26074219 -8.77246094 94.26074219 C-8.91345215 93.72594238 -9.05444336 93.19114258 -9.19970703 92.64013672 C-9.84193529 90.22007756 -10.49456002 87.80294278 -11.14746094 85.38574219 C-11.36917969 84.54398437 -11.59089844 83.70222656 -11.81933594 82.83496094 C-12.03847656 82.02929688 -12.25761719 81.22363281 -12.48339844 80.39355469 C-12.68239746 79.64992676 -12.88139648 78.90629883 -13.08642578 78.14013672 C-13.69832125 76.05370164 -13.69832125 76.05370164 -15.77246094 74.26074219 C-15.77246094 72.94074219 -15.77246094 71.62074219 -15.77246094 70.26074219 C-16.43246094 70.26074219 -17.09246094 70.26074219 -17.77246094 70.26074219 C-18.10246094 66.96074219 -18.43246094 63.66074219 -18.77246094 60.26074219 C-19.43246094 60.26074219 -20.09246094 60.26074219 -20.77246094 60.26074219 C-21.26746094 54.32074219 -21.26746094 54.32074219 -21.77246094 48.26074219 C-22.43246094 48.26074219 -23.09246094 48.26074219 -23.77246094 48.26074219 C-23.88203125 47.65746094 -23.99160156 47.05417969 -24.10449219 46.43261719 C-24.26304688 45.63339844 -24.42160156 44.83417969 -24.58496094 44.01074219 C-24.73578125 43.22183594 -24.88660156 42.43292969 -25.04199219 41.62011719 C-25.9496331 38.68848556 -26.40359985 37.27815375 -28.77246094 35.26074219 C-31.98769223 34.70053359 -35.14360333 34.79601317 -38.39746094 34.88574219 C-39.26242188 34.88703125 -40.12738281 34.88832031 -41.01855469 34.88964844 C-51.18254066 34.83423881 -51.18254066 34.83423881 -59.77246094 39.26074219 C-60.19734357 41.62664687 -60.19734357 41.62664687 -60.33496094 44.26074219 C-60.67754568 49.07091168 -60.67754568 49.07091168 -61.77246094 51.26074219 C-62.03698563 52.84228525 -62.25827411 54.4311927 -62.45605469 56.02246094 C-62.57916016 56.97701172 -62.70226562 57.9315625 -62.82910156 58.91503906 C-63.0805329 60.91746403 -63.33056149 62.92006568 -63.57910156 64.92285156 C-65.14251891 77.00085814 -65.14251891 77.00085814 -67.77246094 82.26074219 C-67.97778226 83.60958921 -68.13835938 84.96546389 -68.27246094 86.32324219 C-68.35496094 87.11988281 -68.43746094 87.91652344 -68.52246094 88.73730469 C-68.60496094 89.57003906 -68.68746094 90.40277344 -68.77246094 91.26074219 C-68.93555113 92.90693377 -69.10205827 94.55279147 -69.27246094 96.19824219 C-69.34464844 96.92914063 -69.41683594 97.66003906 -69.49121094 98.41308594 C-69.77246094 100.26074219 -69.77246094 100.26074219 -70.77246094 102.26074219 C-71.05347362 105.69980214 -71.21958817 109.13894326 -71.39355469 112.58496094 C-71.78380994 116.37083918 -72.67290113 119.62162965 -73.77246094 123.26074219 C-74.52655602 126.39658652 -75.21181475 129.54680917 -75.89746094 132.69824219 C-76.07921875 133.52517578 -76.26097656 134.35210937 -76.44824219 135.20410156 C-76.89160162 137.22255374 -77.33230683 139.24158862 -77.77246094 141.26074219 C-79.87054039 138.58330031 -81.16922859 136.63884331 -81.77246094 133.26074219 C-82.43246094 133.26074219 -83.09246094 133.26074219 -83.77246094 133.26074219 C-84.44713656 131.51381424 -85.1119025 129.76305694 -85.77246094 128.01074219 C-86.14371094 127.03621094 -86.51496094 126.06167969 -86.89746094 125.05761719 C-87.77246094 122.26074219 -87.77246094 122.26074219 -87.77246094 118.26074219 C-88.43246094 118.26074219 -89.09246094 118.26074219 -89.77246094 118.26074219 C-91.75477741 109.81670617 -92.08378087 101.55954141 -92.03320312 92.93603516 C-92.02247722 90.76403905 -92.0331596 88.59286968 -92.04589844 86.42089844 C-92.05264454 78.52526371 -91.58515936 70.9822594 -89.77246094 63.26074219 C-89.11246094 63.26074219 -88.45246094 63.26074219 -87.77246094 63.26074219 C-87.61777344 61.49730469 -87.61777344 61.49730469 -87.45996094 59.69824219 C-86.94331136 55.43588316 -85.62162483 52.11986684 -83.77246094 48.26074219 C-83.11246094 48.26074219 -82.45246094 48.26074219 -81.77246094 48.26074219 C-80.697209 45.60845407 -79.67789942 42.97705765 -78.77246094 40.26074219 C-77.4604569 38.90641544 -76.1261469 37.57340736 -74.77246094 36.26074219 C-74.11246094 35.27074219 -73.45246094 34.28074219 -72.77246094 33.26074219 C-72.11246094 33.26074219 -71.45246094 33.26074219 -70.77246094 33.26074219 C-70.54558594 32.70386719 -70.31871094 32.14699219 -70.08496094 31.57324219 C-68.39696058 28.59914631 -66.30569577 26.54065354 -63.77246094 24.26074219 C-63.11246094 24.26074219 -62.45246094 24.26074219 -61.77246094 24.26074219 C-61.77246094 23.60074219 -61.77246094 22.94074219 -61.77246094 22.26074219 C-60.45996094 20.63574219 -60.45996094 20.63574219 -58.77246094 19.26074219 C-57.78246094 19.26074219 -56.79246094 19.26074219 -55.77246094 19.26074219 C-55.77246094 18.60074219 -55.77246094 17.94074219 -55.77246094 17.26074219 C-54.45246094 16.93074219 -53.13246094 16.60074219 -51.77246094 16.26074219 C-51.77246094 15.60074219 -51.77246094 14.94074219 -51.77246094 14.26074219 C-45.14746094 10.26074219 -45.14746094 10.26074219 -41.77246094 10.26074219 C-41.77246094 9.60074219 -41.77246094 8.94074219 -41.77246094 8.26074219 C-38.30746094 7.76574219 -38.30746094 7.76574219 -34.77246094 7.26074219 C-34.77246094 6.60074219 -34.77246094 5.94074219 -34.77246094 5.26074219 C-32.13246094 4.93074219 -29.49246094 4.60074219 -26.77246094 4.26074219 C-26.77246094 3.60074219 -26.77246094 2.94074219 -26.77246094 2.26074219 C-17.83204744 0.37016342 -9.09658963 -0.05207207 0 0 Z " fill="#FCFCFC" transform="translate(97.7724609375,5.7392578125)"/>
<path d="M0 0 C0.87978516 -0.03287109 1.75957031 -0.06574219 2.66601562 -0.09960938 C9.06239817 -0.15303398 9.06239817 -0.15303398 12.23046875 2.83984375 C14.59507308 7.05555924 14.7779366 9.55392338 14.6875 14.4375 C15.3475 14.4375 16.0075 14.4375 16.6875 14.4375 C17.1825 20.3775 17.1825 20.3775 17.6875 26.4375 C18.3475 26.4375 19.0075 26.4375 19.6875 26.4375 C20.1825 31.3875 20.1825 31.3875 20.6875 36.4375 C21.3475 36.4375 22.0075 36.4375 22.6875 36.4375 C25.97308532 44.2723573 28.20382848 52.07657459 29.6875 60.4375 C30.3475 60.4375 31.0075 60.4375 31.6875 60.4375 C31.6875 61.4275 31.6875 62.4175 31.6875 63.4375 C32.3475 63.4375 33.0075 63.4375 33.6875 63.4375 C34.33884925 64.99770867 34.98332964 66.56078579 35.625 68.125 C36.16447266 69.43017578 36.16447266 69.43017578 36.71484375 70.76171875 C37.6445312 73.31929265 38.22912625 75.7596323 38.6875 78.4375 C39.3475 78.4375 40.0075 78.4375 40.6875 78.4375 C41.1825 76.9525 41.1825 76.9525 41.6875 75.4375 C41.6875 76.0975 41.6875 76.7575 41.6875 77.4375 C42.3475 77.4375 43.0075 77.4375 43.6875 77.4375 C43.6875 78.0975 43.6875 78.7575 43.6875 79.4375 C44.3475 79.4375 45.0075 79.4375 45.6875 79.4375 C45.6875 78.7775 45.6875 78.1175 45.6875 77.4375 C47.6675 77.4375 49.6475 77.4375 51.6875 77.4375 C51.6875 78.0975 51.6875 78.7575 51.6875 79.4375 C52.6775 79.4375 53.6675 79.4375 54.6875 79.4375 C55.1825 77.9525 55.1825 77.9525 55.6875 76.4375 C57.1875 77.8125 57.1875 77.8125 58.6875 79.4375 C58.6875 80.0975 58.6875 80.7575 58.6875 81.4375 C58.0275 81.4375 57.3675 81.4375 56.6875 81.4375 C56.6875 82.0975 56.6875 82.7575 56.6875 83.4375 C56.06101562 83.64246094 55.43453125 83.84742187 54.7890625 84.05859375 C53.97179687 84.32800781 53.15453125 84.59742187 52.3125 84.875 C51.50039062 85.14183594 50.68828125 85.40867187 49.8515625 85.68359375 C47.67718201 86.38929729 47.67718201 86.38929729 45.6875 87.4375 C45.6875 88.0975 45.6875 88.7575 45.6875 89.4375 C43.7075 89.7675 41.7275 90.0975 39.6875 90.4375 C39.6875 91.0975 39.6875 91.7575 39.6875 92.4375 C38.6975 92.4375 37.7075 92.4375 36.6875 92.4375 C36.6875 91.7775 36.6875 91.1175 36.6875 90.4375 C35.67429688 90.99630859 35.67429688 90.99630859 34.640625 91.56640625 C33.74859375 92.03949219 32.8565625 92.51257813 31.9375 93 C31.05578125 93.47566406 30.1740625 93.95132813 29.265625 94.44140625 C26.48048812 95.51748186 25.41769786 95.50278748 22.6875 94.4375 C22.6875 95.7575 22.6875 97.0775 22.6875 98.4375 C23.1825 98.086875 23.6775 97.73625 24.1875 97.375 C27.91447603 95.97738399 30.78552848 96.78717141 34.6875 97.4375 C34.6875 98.7575 34.6875 100.0775 34.6875 101.4375 C32.04011084 102.8981285 30.79301666 103.4375 27.6875 103.4375 C28.3475 104.0975 29.0075 104.7575 29.6875 105.4375 C30.56792969 104.88320312 31.44835937 104.32890625 32.35546875 103.7578125 C33.52851486 103.02583173 34.7016993 102.29407261 35.875 101.5625 C36.45314453 101.19769531 37.03128906 100.83289063 37.62695312 100.45703125 C42.15996722 97.63990385 46.47995823 95.5947315 51.6875 94.4375 C51.6875 95.0975 51.6875 95.7575 51.6875 96.4375 C52.30625 95.7775 52.925 95.1175 53.5625 94.4375 C55.6875 92.4375 55.6875 92.4375 57.6875 92.4375 C57.6875 91.7775 57.6875 91.1175 57.6875 90.4375 C59.6675 90.1075 61.6475 89.7775 63.6875 89.4375 C63.6875 88.7775 63.6875 88.1175 63.6875 87.4375 C64.80125 86.98375 65.915 86.53 67.0625 86.0625 C70.64949008 84.71284014 70.64949008 84.71284014 72.6875 82.4375 C72.37825786 84.54214793 72.0649944 86.6462053 71.75 88.75 C71.57597656 89.92175781 71.40195313 91.09351563 71.22265625 92.30078125 C70.6875 95.4375 70.6875 95.4375 69.6875 98.4375 C69.0275 98.4375 68.3675 98.4375 67.6875 98.4375 C67.584375 99.71625 67.48125 100.995 67.375 102.3125 C66.6407631 108.889608 64.77847309 114.95008137 62.125 121 C60.67827595 124.4595575 59.90865184 127.70004114 59.1484375 131.3515625 C58.58814343 133.8871306 57.90819963 136.13971246 56.6875 138.4375 C51.38839841 140.2038672 45.73345761 139.66460647 40.1875 139.6875 C38.31384766 139.7184375 38.31384766 139.7184375 36.40234375 139.75 C34.60990234 139.75773437 34.60990234 139.75773437 32.78125 139.765625 C31.68490234 139.7749707 30.58855469 139.78431641 29.45898438 139.79394531 C26.6875 139.4375 26.6875 139.4375 24.89331055 138.11572266 C22.99423179 135.47262337 22.07698193 132.62203426 21 129.5625 C20.56300781 128.34820312 20.12601563 127.13390625 19.67578125 125.8828125 C18.79945407 122.82779047 18.46658171 120.57812215 18.6875 117.4375 C18.0275 117.4375 17.3675 117.4375 16.6875 117.4375 C16.6875 116.4475 16.6875 115.4575 16.6875 114.4375 C16.0275 114.4375 15.3675 114.4375 14.6875 114.4375 C14.1925 110.9725 14.1925 110.9725 13.6875 107.4375 C13.0275 107.4375 12.3675 107.4375 11.6875 107.4375 C10.25154097 102.6859933 8.8281356 97.93132933 7.4453125 93.1640625 C7.22770264 92.41632568 7.01009277 91.66858887 6.78588867 90.89819336 C6.35171481 89.40480851 5.91952369 87.91084551 5.48950195 86.41625977 C3.88005363 80.821046 3.88005363 80.821046 1.6875 75.4375 C0.6975 74.9425 0.6975 74.9425 -0.3125 74.4375 C-0.27878296 75.40018799 -0.27878296 75.40018799 -0.24438477 76.38232422 C-0.09766822 83.95614309 -0.98249207 91.10657101 -2.25 98.5625 C-2.43240234 99.696875 -2.61480469 100.83125 -2.80273438 102 C-4.17037756 110.29537756 -4.17037756 110.29537756 -5.3125 111.4375 C-7.22699357 118.96676884 -8.18161417 126.76191322 -9.3125 134.4375 C-10.6325 134.1075 -11.9525 133.7775 -13.3125 133.4375 C-13.3125 132.7775 -13.3125 132.1175 -13.3125 131.4375 C-14.6325 131.1075 -15.9525 130.7775 -17.3125 130.4375 C-17.3125 129.7775 -17.3125 129.1175 -17.3125 128.4375 C-18.3025 128.4375 -19.2925 128.4375 -20.3125 128.4375 C-22 127.0625 -22 127.0625 -23.3125 125.4375 C-23.3125 124.7775 -23.3125 124.1175 -23.3125 123.4375 C-23.869375 123.210625 -24.42625 122.98375 -25 122.75 C-27.97409588 121.06199964 -30.03258865 118.97073483 -32.3125 116.4375 C-32.3125 115.7775 -32.3125 115.1175 -32.3125 114.4375 C-33.3025 114.1075 -34.2925 113.7775 -35.3125 113.4375 C-37.5625 110.875 -37.5625 110.875 -39.3125 107.4375 C-39.09231729 104.70259891 -38.77695047 102.13029264 -38.3125 99.4375 C-38.19551758 98.73439697 -38.07853516 98.03129395 -37.95800781 97.30688477 C-37.59533302 95.20059986 -37.20790922 93.10036678 -36.8125 91 C-36.68230469 90.28134766 -36.55210938 89.56269531 -36.41796875 88.82226562 C-35.43387957 83.55887957 -35.43387957 83.55887957 -34.3125 82.4375 C-34.12577471 80.25311055 -33.98876532 78.06440199 -33.875 75.875 C-33.57770692 71.19853267 -33.10225973 66.9895532 -31.78125 62.51171875 C-30.9328364 58.75748856 -30.85267675 54.90945098 -30.65625 51.07421875 C-30.3125 48.4375 -30.3125 48.4375 -28.3125 45.4375 C-27.90125643 43.15852524 -27.58030402 40.86274525 -27.3125 38.5625 C-27.14819667 37.21731787 -26.98281018 35.87226765 -26.81640625 34.52734375 C-26.69289795 33.50809814 -26.69289795 33.50809814 -26.56689453 32.46826172 C-26.17582271 29.3464427 -25.71822144 26.23607134 -25.25 23.125 C-25.09402344 22.07699219 -24.93804687 21.02898438 -24.77734375 19.94921875 C-24.3125 17.4375 -24.3125 17.4375 -23.3125 15.4375 C-23.07832693 12.90929815 -22.93093104 10.38262297 -22.7890625 7.84765625 C-22.22215798 4.98060636 -21.53502283 4.27170334 -19.3125 2.4375 C-13.19168268 0.1328498 -6.46270227 0.04356878 0 0 Z " fill="#080808" transform="translate(59.3125,39.5625)"/>
<path d="M0 0 C1.62718959 2.90277747 2.31536762 5.21546317 2.59765625 8.5234375 C2.71584717 9.90511108 2.71584717 9.90511108 2.83642578 11.31469727 C2.91103027 12.32459717 2.98563477 13.33449707 3.0625 14.375 C3.14483887 15.43323975 3.22717773 16.49147949 3.31201172 17.58178711 C4.48067953 34.0229761 4.67994223 50.52483117 5 67 C3.35 67.33 1.7 67.66 0 68 C0 68.66 0 69.32 0 70 C-2.64 70.33 -5.28 70.66 -8 71 C-8 71.66 -8 72.32 -8 73 C-16.87762046 75.14607675 -25.53405907 75.30913817 -34.60644531 75.26074219 C-36.99570081 75.25001929 -39.3842047 75.26069231 -41.7734375 75.2734375 C-50.051277 75.27988241 -57.90382928 74.95716902 -66 73 C-66 72.34 -66 71.68 -66 71 C-68.64 70.67 -71.28 70.34 -74 70 C-74 69.34 -74 68.68 -74 68 C-76.31 67.67 -78.62 67.34 -81 67 C-81 66.34 -81 65.68 -81 65 C-82.98 64.67 -84.96 64.34 -87 64 C-86.51140371 54.35665211 -85.83937066 45.08179007 -83.03125 35.796875 C-81.85604989 31.47000188 -81.11099323 27.17765196 -80.4375 22.75 C-80.30819092 21.91750732 -80.17888184 21.08501465 -80.0456543 20.22729492 C-79.12553389 14.16909975 -78.3986376 8.11702523 -78 2 C-77.01 2.33 -76.02 2.66 -75 3 C-74.03349911 5.26627795 -73.26923674 7.40257291 -72.5625 9.75 C-72.35149658 10.41942627 -72.14049316 11.08885254 -71.9230957 11.77856445 C-71.48746034 13.16601643 -71.05709475 14.55513328 -70.63183594 15.94580078 C-70.03542959 17.88481278 -69.41304336 19.81577877 -68.7890625 21.74609375 C-66 30.45944149 -66 30.45944149 -66 35 C-65.34 35 -64.68 35 -64 35 C-63.67 37.31 -63.34 39.62 -63 42 C-62.34 42 -61.68 42 -61 42 C-61 42.99 -61 43.98 -61 45 C-60.34 45 -59.68 45 -59 45 C-58.82984375 45.68964844 -58.6596875 46.37929687 -58.484375 47.08984375 C-56.23174822 57.25718277 -56.23174822 57.25718277 -51 66 C-48.78144736 66.08783542 -46.56011504 66.10694609 -44.33984375 66.09765625 C-43.67537735 66.0962413 -43.01091095 66.09482635 -42.3263092 66.09336853 C-40.19666101 66.08775518 -38.06711661 66.07520054 -35.9375 66.0625 C-34.49674631 66.05748671 -33.05599097 66.05292351 -31.61523438 66.04882812 C-28.07678898 66.03778145 -24.53840461 66.02050792 -21 66 C-20.51865285 63.59723822 -20.03781222 61.19456106 -19.5703125 58.7890625 C-18.71487722 54.63194721 -17.63838359 50.95772854 -15.859375 47.08203125 C-13.07346952 40.33254207 -11.06360286 33.21730509 -10 26 C-9.34 26 -8.68 26 -8 26 C-7.87044922 24.80117187 -7.87044922 24.80117187 -7.73828125 23.578125 C-5.41453567 5.41453567 -5.41453567 5.41453567 0 0 Z " fill="#F6F6F6" transform="translate(137,112)"/>
<path d="M0 0 C0.33 0 0.66 0 1 0 C0.4602717 6.03643494 -0.22577321 12.05182836 -1 18.0625 C-1.165 19.35285156 -1.33 20.64320313 -1.5 21.97265625 C-2 25 -2 25 -3 26 C-4.91449357 33.52926884 -5.86911417 41.32441322 -7 49 C-8.32 48.67 -9.64 48.34 -11 48 C-11 47.34 -11 46.68 -11 46 C-12.32 45.67 -13.64 45.34 -15 45 C-15 44.34 -15 43.68 -15 43 C-15.99 43 -16.98 43 -18 43 C-19.6875 41.625 -19.6875 41.625 -21 40 C-21 39.34 -21 38.68 -21 38 C-21.598125 37.7525 -22.19625 37.505 -22.8125 37.25 C-25.28647521 35.83629988 -26.43370255 34.34944617 -28 32 C-26.68 31.67 -25.36 31.34 -24 31 C-24 30.34 -24 29.68 -24 29 C-22.02 28.67 -20.04 28.34 -18 28 C-18 27.34 -18 26.68 -18 26 C-18.99 26 -19.98 26 -21 26 C-21 25.34 -21 24.68 -21 24 C-21.99 24 -22.98 24 -24 24 C-23.67 23.01 -23.34 22.02 -23 21 C-20.69 21 -18.38 21 -16 21 C-16.33 22.32 -16.66 23.64 -17 25 C-15.02 25.33 -13.04 25.66 -11 26 C-11 25.01 -11 24.02 -11 23 C-11.66 22.67 -12.32 22.34 -13 22 C-12.67 21.67 -12.34 21.34 -12 21 C-12.66 20.67 -13.32 20.34 -14 20 C-12.54875366 16.17398693 -10.64225296 14.77670876 -7 13 C-6.01 13 -5.02 13 -4 13 C-4 13.99 -4 14.98 -4 16 C-3.34 16 -2.68 16 -2 16 C-2 13.03 -2 10.06 -2 7 C-2.91523437 7.37253906 -3.83046875 7.74507812 -4.7734375 8.12890625 C-5.96195313 8.60199219 -7.15046875 9.07507813 -8.375 9.5625 C-9.55835937 10.03816406 -10.74171875 10.51382813 -11.9609375 11.00390625 C-15 12 -15 12 -17 11 C-20.10586948 11 -21.56321735 12.11149345 -24 14 C-25.36900354 17.57996259 -25.36900354 17.57996259 -26 21 C-27.32 21 -28.64 21 -30 21 C-30 19.68 -30 18.36 -30 17 C-30.66 17 -31.32 17 -32 17 C-31.89453125 15.1953125 -31.89453125 15.1953125 -31 13 C-28.19921875 11.3671875 -28.19921875 11.3671875 -24.6875 9.875 C-23.53636719 9.37742188 -22.38523437 8.87984375 -21.19921875 8.3671875 C-19.61560547 7.69042969 -19.61560547 7.69042969 -18 7 C-17.26394531 6.61070312 -16.52789062 6.22140625 -15.76953125 5.8203125 C-14 5 -14 5 -11 5 C-11 5.66 -11 6.32 -11 7 C-10.071875 6.505 -9.14375 6.01 -8.1875 5.5 C-5 4 -5 4 -2 4 C-1.34 2.68 -0.68 1.36 0 0 Z " fill="#0E0E0E" transform="translate(57,125)"/>
<path d="M0 0 C0.66 0.33 1.32 0.66 2 1 C2 4.96 2 8.92 2 13 C1.34 13 0.68 13 0 13 C-0.268125 13.598125 -0.53625 14.19625 -0.8125 14.8125 C-3.27064125 19.34065493 -6.43948109 20.76627645 -11 23 C-11.7425 23.556875 -12.485 24.11375 -13.25 24.6875 C-15 26 -15 26 -17 26 C-17 26.66 -17 27.32 -17 28 C-20.96 28.495 -20.96 28.495 -25 29 C-22.10585623 22.84994449 -18.98217875 20.15080774 -13 17 C-14.98 17.33 -16.96 17.66 -19 18 C-19 18.66 -19 19.32 -19 20 C-20.98 20.33 -22.96 20.66 -25 21 C-25 20.34 -25 19.68 -25 19 C-25.66 19 -26.32 19 -27 19 C-27 18.34 -27 17.68 -27 17 C-27.66 17 -28.32 17 -29 17 C-29.33 17.66 -29.66 18.32 -30 19 C-30 17.02 -30 15.04 -30 13 C-28.453125 12.87625 -28.453125 12.87625 -26.875 12.75 C-22.63502767 11.92936019 -20.47199021 10.49077559 -17 8 C-15.35008418 7.29289322 -13.68437744 6.62056011 -12 6 C-11.38125 5.608125 -10.7625 5.21625 -10.125 4.8125 C-6.93824968 3.59403664 -4.28338113 4.36858055 -1 5 C-0.67 3.35 -0.34 1.7 0 0 Z " fill="#040404" transform="translate(173,141)"/>
<path d="M0 0 C0.3125 2.25 0.3125 2.25 0 5 C-4.10810811 9 -4.10810811 9 -7 9 C-7 9.66 -7 10.32 -7 11 C-8.98 11.33 -10.96 11.66 -13 12 C-13 12.66 -13 13.32 -13 14 C-13.66 14 -14.32 14 -15 14 C-15.66 15.32 -16.32 16.64 -17 18 C-17.66 18 -18.32 18 -19 18 C-19 17.34 -19 16.68 -19 16 C-19.680625 16.433125 -20.36125 16.86625 -21.0625 17.3125 C-23.62303527 18.78344579 -26.1633166 19.91588556 -28.88671875 21.0390625 C-33.39268852 23.08798775 -37.68134605 25.58686425 -42 28 C-42.33 27.01 -42.66 26.02 -43 25 C-40.69 24.34 -38.38 23.68 -36 23 C-36 21.68 -36 20.36 -36 19 C-39.63 19 -43.26 19 -47 19 C-47.33 19.66 -47.66 20.32 -48 21 C-48.33 20.01 -48.66 19.02 -49 18 C-48.67 17.34 -48.34 16.68 -48 16 C-46.906875 15.855625 -45.81375 15.71125 -44.6875 15.5625 C-40.9547184 14.99309264 -39.8067951 14.30558169 -37 12 C-36.01 12 -35.02 12 -34 12 C-34 12.66 -34 13.32 -34 14 C-33.01 14 -32.02 14 -31 14 C-31 13.34 -31 12.68 -31 12 C-29.02 11.67 -27.04 11.34 -25 11 C-25 9.68 -25 8.36 -25 7 C-21.12315913 5.80712589 -18.08378077 5 -14 5 C-14 4.34 -14 3.68 -14 3 C-12.23358317 2.3012307 -10.46167336 1.61633417 -8.6875 0.9375 C-7.70136719 0.55464844 -6.71523437 0.17179687 -5.69921875 -0.22265625 C-3 -1 -3 -1 0 0 Z " fill="#171717" transform="translate(130,118)"/>
<path d="M0 0 C1.32 0 2.64 0 4 0 C3.67 1.32 3.34 2.64 3 4 C2.34 4 1.68 4 1 4 C1 4.66 1 5.32 1 6 C1.99 5.67 2.98 5.34 4 5 C4.33 4.34 4.66 3.68 5 3 C6.9375 2.4375 6.9375 2.4375 9 2 C9.66 1.67 10.32 1.34 11 1 C9.95855159 7.0894101 8.52969338 12.33348683 6 18 C5.2055904 20.46143493 4.48180589 22.93776485 3.76171875 25.421875 C2.61120303 29.31592821 1.30890944 33.15681908 0 37 C-0.66 36.67 -1.32 36.34 -2 36 C-2 35.34 -2 34.68 -2 34 C-3.65 34 -5.3 34 -7 34 C-7 34.66 -7 35.32 -7 36 C-7.66 36 -8.32 36 -9 36 C-10.625 33.5 -10.625 33.5 -12 31 C-10.906875 31.04125 -9.81375 31.0825 -8.6875 31.125 C-4.91107771 31.32074666 -4.91107771 31.32074666 -2 29 C-2.66 28.67 -3.32 28.34 -4 28 C-4 27.34 -4 26.68 -4 26 C-4.60328125 26.28875 -5.2065625 26.5775 -5.828125 26.875 C-6.62734375 27.24625 -7.4265625 27.6175 -8.25 28 C-9.43335937 28.556875 -9.43335937 28.556875 -10.640625 29.125 C-13 30 -13 30 -17 30 C-16 27 -16 27 -14.0390625 25.83203125 C-13.24242188 25.49558594 -12.44578125 25.15914062 -11.625 24.8125 C-10.83351563 24.46832031 -10.04203125 24.12414062 -9.2265625 23.76953125 C-7 23 -7 23 -4 23 C-4 22.34 -4 21.68 -4 21 C-1.5 19.375 -1.5 19.375 1 18 C0.49396008 15.83125748 0.00016187 14.00032373 -1 12 C-3.31 12.33 -5.62 12.66 -8 13 C-8 12.01 -8 11.02 -8 10 C-9.65 10 -11.3 10 -13 10 C-12.34 8.35 -11.68 6.7 -11 5 C-10.01 5 -9.02 5 -8 5 C-8 4.34 -8 3.68 -8 3 C-4.71303767 2.20046862 -3.28976808 1.90341064 0 3 C0 2.01 0 1.02 0 0 Z " fill="#1D1D1D" transform="translate(116,141)"/>
<path d="M0 0 C0 2.97 0 5.94 0 9 C-0.66 9 -1.32 9 -2 9 C-2 8.01 -2 7.02 -2 6 C-3.48280196 6.78483659 -4.9611498 7.57809334 -6.4375 8.375 C-7.26121094 8.81585938 -8.08492187 9.25671875 -8.93359375 9.7109375 C-11.13466578 10.83418559 -11.13466578 10.83418559 -12 13 C-11.01 13.33 -10.02 13.66 -9 14 C-9 15.66666667 -9 17.33333333 -9 19 C-10.98 18.67 -12.96 18.34 -15 18 C-14.67 16.68 -14.34 15.36 -14 14 C-16.3431213 14.25561323 -18.67843403 14.59270772 -21 15 C-21.33 15.66 -21.66 16.32 -22 17 C-21.01 17 -20.02 17 -19 17 C-19 17.66 -19 18.32 -19 19 C-18.01 19 -17.02 19 -16 19 C-16 19.66 -16 20.32 -16 21 C-17.98 21.33 -19.96 21.66 -22 22 C-22 22.66 -22 23.32 -22 24 C-23.65 24.33 -25.3 24.66 -27 25 C-27.33 24.01 -27.66 23.02 -28 22 C-28.99 21.67 -29.98 21.34 -31 21 C-33.59822383 17.84501392 -34.01935117 16.38702341 -33.8125 12.25 C-33.544375 11.1775 -33.27625 10.105 -33 9 C-32.34 8.67 -31.68 8.34 -31 8 C-30.67 8.66 -30.34 9.32 -30 10 C-29.34 10 -28.68 10 -28 10 C-28 11.32 -28 12.64 -28 14 C-26.68 14 -25.36 14 -24 14 C-23.9690625 12.4221875 -23.9690625 12.4221875 -23.9375 10.8125 C-22.81548699 6.2496471 -21.51340846 5.28572491 -17.7890625 2.75 C-16 2 -16 2 -13 3 C-13 3.33 -13 3.66 -13 4 C-11.84371094 3.566875 -11.84371094 3.566875 -10.6640625 3.125 C-9.15972656 2.568125 -9.15972656 2.568125 -7.625 2 C-6.62726562 1.62875 -5.62953125 1.2575 -4.6015625 0.875 C-2 0 -2 0 0 0 Z " fill="#080808" transform="translate(55,132)"/>
<path d="M0 0 C0.66 0.33 1.32 0.66 2 1 C2.29599372 9.2056037 1.43794854 16.92437827 0 25 C-1.32 24.67 -2.64 24.34 -4 24 C-4 23.34 -4 22.68 -4 22 C-5.32 21.67 -6.64 21.34 -8 21 C-8 20.34 -8 19.68 -8 19 C-8.99 19 -9.98 19 -11 19 C-12.6875 17.625 -12.6875 17.625 -14 16 C-14 15.34 -14 14.68 -14 14 C-14.639375 13.731875 -15.27875 13.46375 -15.9375 13.1875 C-18 12 -18 12 -19 9 C-11.9452954 4.92122538 -11.9452954 4.92122538 -8 5.25 C-7.34 5.4975 -6.68 5.745 -6 6 C-5.62875 5.071875 -5.62875 5.071875 -5.25 4.125 C-3.78043163 1.62673377 -2.71435596 0.93305986 0 0 Z " fill="#060606" transform="translate(50,149)"/>
<path d="M0 0 C0.33 0 0.66 0 1 0 C1.06058594 0.89203125 1.12117187 1.7840625 1.18359375 2.703125 C1.26738281 3.87359375 1.35117188 5.0440625 1.4375 6.25 C1.51871094 7.41015625 1.59992188 8.5703125 1.68359375 9.765625 C1.93247787 12.30977376 2.28114942 14.55953248 3 17 C3.66 17 4.32 17 5 17 C5 17.66 5 18.32 5 19 C5.66 19 6.32 19 7 19 C7 19.66 7 20.32 7 21 C8.98 20.67 10.96 20.34 13 20 C13 19.34 13 18.68 13 18 C14.8125 16.9375 14.8125 16.9375 17 16 C17.99 16.33 18.98 16.66 20 17 C19.38511719 17.37511719 18.77023438 17.75023437 18.13671875 18.13671875 C11.95109136 21.98873708 11.95109136 21.98873708 8 28 C10.31 28 12.62 28 15 28 C15 27.34 15 26.68 15 26 C16.96875 24.4921875 16.96875 24.4921875 19.5 22.875 C20.3353125 22.33617187 21.170625 21.79734375 22.03125 21.2421875 C22.6809375 20.83226562 23.330625 20.42234375 24 20 C24.66 20.33 25.32 20.66 26 21 C25.01 21.33 24.02 21.66 23 22 C23 22.66 23 23.32 23 24 C21.6875 25.625 21.6875 25.625 20 27 C19.01 27 18.02 27 17 27 C17 27.66 17 28.32 17 29 C15.68 29.33 14.36 29.66 13 30 C13 30.66 13 31.32 13 32 C6.375 36 6.375 36 3 36 C3 36.66 3 37.32 3 38 C2.34 38 1.68 38 1 38 C-0.06346444 29.78242924 -0.11790325 21.65139345 -0.0625 13.375 C-0.05798828 12.08464844 -0.05347656 10.79429687 -0.04882812 9.46484375 C-0.03714295 6.30984625 -0.02076044 3.15494863 0 0 Z " fill="#3B3B3B" transform="translate(141,141)"/>
<path d="M0 0 C1.14721836 3.78662284 0.5429649 5.36949436 -1 9 C-1 10.32 -1 11.64 -1 13 C-0.13375 12.505 -0.13375 12.505 0.75 12 C3 11 3 11 7 11 C7 10.34 7 9.68 7 9 C8.98 8.67 10.96 8.34 13 8 C13 8.99 13 9.98 13 11 C12.01 11 11.02 11 10 11 C10 11.66 10 12.32 10 13 C9.67 13.33 9.34 13.66 9 14 C9.99 14 10.98 14 12 14 C12 14.99 12 15.98 12 17 C11.154375 17.4125 10.30875 17.825 9.4375 18.25 C7.66756997 19.15105529 5.89796694 20.06444193 4.21875 21.125 C-0.45703125 24.078125 -0.45703125 24.078125 -3.71484375 23.609375 C-4.46894531 23.40828125 -5.22304687 23.2071875 -6 23 C-6.10957031 23.67546875 -6.21914062 24.3509375 -6.33203125 25.046875 C-6.49058594 25.93890625 -6.64914063 26.8309375 -6.8125 27.75 C-6.96332031 28.63171875 -7.11414063 29.5134375 -7.26953125 30.421875 C-8.05414248 33.1910911 -9.14595359 34.8259401 -11 37 C-10.31092878 33.34056353 -9.43178734 29.77558041 -8.4375 26.1875 C-8.16808594 25.21167969 -7.89867188 24.23585938 -7.62109375 23.23046875 C-7.41613281 22.49441406 -7.21117188 21.75835937 -7 21 C-6.34 21 -5.68 21 -5 21 C-5.02320312 20.22914062 -5.04640625 19.45828125 -5.0703125 18.6640625 C-5.08835937 17.66117188 -5.10640625 16.65828125 -5.125 15.625 C-5.14820312 14.62726563 -5.17140625 13.62953125 -5.1953125 12.6015625 C-5 10 -5 10 -3 8 C-2.11221308 6.03511169 -2.11221308 6.03511169 -1.375 3.875 C-1.11460938 3.15054688 -0.85421875 2.42609375 -0.5859375 1.6796875 C-0.29589844 0.84824219 -0.29589844 0.84824219 0 0 Z " fill="#363636" transform="translate(112,77)"/>
<path d="M0 0 C0.33 0 0.66 0 1 0 C0.46065519 6.03214585 -0.20340506 12.05111002 -0.9375 18.0625 C-1.09089844 19.35285156 -1.24429688 20.64320313 -1.40234375 21.97265625 C-1.59957031 22.97167969 -1.79679687 23.97070312 -2 25 C-2.66 25.33 -3.32 25.66 -4 26 C-3.34 19.73 -2.68 13.46 -2 7 C-4.10375 7.845625 -6.2075 8.69125 -8.375 9.5625 C-10.55828225 10.44009385 -12.76398294 11.26711523 -15 12 C-15.66 11.67 -16.32 11.34 -17 11 C-20.10586948 11 -21.56321735 12.11149345 -24 14 C-25.36900354 17.57996259 -25.36900354 17.57996259 -26 21 C-27.32 21 -28.64 21 -30 21 C-30 19.68 -30 18.36 -30 17 C-30.66 17 -31.32 17 -32 17 C-31.89453125 15.1953125 -31.89453125 15.1953125 -31 13 C-28.19921875 11.3671875 -28.19921875 11.3671875 -24.6875 9.875 C-23.53636719 9.37742188 -22.38523437 8.87984375 -21.19921875 8.3671875 C-19.61560547 7.69042969 -19.61560547 7.69042969 -18 7 C-17.26394531 6.61070312 -16.52789062 6.22140625 -15.76953125 5.8203125 C-14 5 -14 5 -11 5 C-11 5.66 -11 6.32 -11 7 C-10.071875 6.505 -9.14375 6.01 -8.1875 5.5 C-5 4 -5 4 -2 4 C-1.34 2.68 -0.68 1.36 0 0 Z " fill="#727272" transform="translate(57,125)"/>
<path d="M0 0 C1.32 0 2.64 0 4 0 C3.67 1.32 3.34 2.64 3 4 C2.34 4 1.68 4 1 4 C1 4.66 1 5.32 1 6 C1.99 5.67 2.98 5.34 4 5 C4.33 4.34 4.66 3.68 5 3 C6.9375 2.4375 6.9375 2.4375 9 2 C9.66 1.67 10.32 1.34 11 1 C10.71890887 2.64767247 10.42481474 4.29313145 10.125 5.9375 C9.96257812 6.85402344 9.80015625 7.77054688 9.6328125 8.71484375 C9.42398438 9.46894531 9.21515625 10.22304687 9 11 C8.01 11.495 8.01 11.495 7 12 C7 10.35 7 8.7 7 7 C6.01 7.33 5.02 7.66 4 8 C4 9.32 4 10.64 4 12 C3.01 12.33 2.02 12.66 1 13 C1 12.34 1 11.68 1 11 C-1.97 11.66 -4.94 12.32 -8 13 C-8 12.01 -8 11.02 -8 10 C-9.65 10 -11.3 10 -13 10 C-12.34 8.35 -11.68 6.7 -11 5 C-10.01 5 -9.02 5 -8 5 C-8 4.34 -8 3.68 -8 3 C-4.71303767 2.20046862 -3.28976808 1.90341064 0 3 C0 2.01 0 1.02 0 0 Z " fill="#232323" transform="translate(116,141)"/>
<path d="M0 0 C-0.66 0.66 -1.32 1.32 -2 2 C-2.99 2 -3.98 2 -5 2 C-5 2.66 -5 3.32 -5 4 C-5.99 4.495 -5.99 4.495 -7 5 C-7 5.99 -7 6.98 -7 8 C-7.99 8 -8.98 8 -10 8 C-10 8.66 -10 9.32 -10 10 C-7.46326712 8.6446674 -7.46326712 8.6446674 -5 7 C-5 6.34 -5 5.68 -5 5 C-4.34 5 -3.68 5 -3 5 C-3 4.34 -3 3.68 -3 3 C-1.68 3 -0.36 3 1 3 C1 4.65 1 6.3 1 8 C0.01 8 -0.98 8 -2 8 C-2 9.65 -2 11.3 -2 13 C-0.68 13.33 0.64 13.66 2 14 C1.67 14.66 1.34 15.32 1 16 C-1.32156597 16.40729228 -3.6568787 16.74438677 -6 17 C-6 15.02 -6 13.04 -6 11 C-6.99 11 -7.98 11 -9 11 C-9 11.66 -9 12.32 -9 13 C-9.99 13 -10.98 13 -12 13 C-12 11.02 -12 9.04 -12 7 C-13.65 7.33 -15.3 7.66 -17 8 C-17 7.01 -17 6.02 -17 5 C-15.02 4.67 -13.04 4.34 -11 4 C-11 2.68 -11 1.36 -11 0 C-9.54263913 -0.19491452 -8.08405407 -0.38069358 -6.625 -0.5625 C-5.81289063 -0.66691406 -5.00078125 -0.77132812 -4.1640625 -0.87890625 C-2 -1 -2 -1 0 0 Z " fill="#464646" transform="translate(49,97)"/>
<path d="M0 0 C1.21236328 0.04060547 1.21236328 0.04060547 2.44921875 0.08203125 C3.06410156 0.11683594 3.67898437 0.15164062 4.3125 0.1875 C4.3125 0.8475 4.3125 1.5075 4.3125 2.1875 C2.3325 2.8475 0.3525 3.5075 -1.6875 4.1875 C-1.6875 5.1775 -1.6875 6.1675 -1.6875 7.1875 C-1.6875 8.5075 -1.6875 9.8275 -1.6875 11.1875 C-3.0075 11.1875 -4.3275 11.1875 -5.6875 11.1875 C-5.6875 11.8475 -5.6875 12.5075 -5.6875 13.1875 C-7.9975 13.5175 -10.3075 13.8475 -12.6875 14.1875 C-12.6875 13.5275 -12.6875 12.8675 -12.6875 12.1875 C-13.3475 12.1875 -14.0075 12.1875 -14.6875 12.1875 C-14.07211538 5.66442308 -14.07211538 5.66442308 -12.125 3.25 C-11.4134375 2.7240625 -11.4134375 2.7240625 -10.6875 2.1875 C-10.3575 3.1775 -10.0275 4.1675 -9.6875 5.1875 C-9.0275 5.1875 -8.3675 5.1875 -7.6875 5.1875 C-7.6875 4.5275 -7.6875 3.8675 -7.6875 3.1875 C-5.39299116 0.12072929 -3.73722064 -0.16248785 0 0 Z " fill="#191919" transform="translate(135.6875,43.8125)"/>
<path d="M0 0 C1.29758261 2.59516521 1.13269102 4.54183027 1.125 7.4375 C1.12757812 8.40558594 1.13015625 9.37367188 1.1328125 10.37109375 C1 13 1 13 0 16 C-1.32 15.67 -2.64 15.34 -4 15 C-4 14.34 -4 13.68 -4 13 C-5.32 12.67 -6.64 12.34 -8 12 C-8 11.34 -8 10.68 -8 10 C-8.99 10 -9.98 10 -11 10 C-10.67 8.35 -10.34 6.7 -10 5 C-8.68 4.67 -7.36 4.34 -6 4 C-6 3.34 -6 2.68 -6 2 C-2.25 0 -2.25 0 0 0 Z " fill="#151515" transform="translate(50,158)"/>
<path d="M0 0 C0 0.99 0 1.98 0 3 C0.78375 2.505 1.5675 2.01 2.375 1.5 C5 0 5 0 7 0 C6.8046875 2.296875 6.8046875 2.296875 6 5 C3.8203125 6.765625 3.8203125 6.765625 1.125 8.25 C-0.20144531 9.00023437 -0.20144531 9.00023437 -1.5546875 9.765625 C-4 11 -4 11 -7 12 C-7 12.66 -7 13.32 -7 14 C-9.64 14.33 -12.28 14.66 -15 15 C-12.10585623 8.84994449 -8.98217875 6.15080774 -3 3 C-3.66 2.34 -4.32 1.68 -5 1 C-2 0 -2 0 0 0 Z " fill="#1D1D1D" transform="translate(163,155)"/>
<path d="M0 0 C-0.61488281 0.37511719 -1.22976562 0.75023437 -1.86328125 1.13671875 C-8.04890864 4.98873708 -8.04890864 4.98873708 -12 11 C-9.69 11 -7.38 11 -5 11 C-5 10.34 -5 9.68 -5 9 C-3.03125 7.4921875 -3.03125 7.4921875 -0.5 5.875 C0.3353125 5.33617187 1.170625 4.79734375 2.03125 4.2421875 C2.6809375 3.83226562 3.330625 3.42234375 4 3 C4.66 3.33 5.32 3.66 6 4 C5.01 4.33 4.02 4.66 3 5 C3 5.66 3 6.32 3 7 C1.6875 8.625 1.6875 8.625 0 10 C-0.99 10 -1.98 10 -3 10 C-3 10.66 -3 11.32 -3 12 C-3.639375 12.12375 -4.27875 12.2475 -4.9375 12.375 C-5.618125 12.58125 -6.29875 12.7875 -7 13 C-7.33 13.66 -7.66 14.32 -8 15 C-10.31 14.67 -12.62 14.34 -15 14 C-14.67 12.68 -14.34 11.36 -14 10 C-14.66 10 -15.32 10 -16 10 C-16 9.34 -16 8.68 -16 8 C-15.34 8 -14.68 8 -14 8 C-14 7.01 -14 6.02 -14 5 C-14.66 5 -15.32 5 -16 5 C-16 4.34 -16 3.68 -16 3 C-13.03 3 -10.06 3 -7 3 C-7 2.34 -7 1.68 -7 1 C-3.375 -1.125 -3.375 -1.125 0 0 Z " fill="#C4C4C4" transform="translate(161,158)"/>
<path d="M0 0 C0.75023437 0.59941406 0.75023437 0.59941406 1.515625 1.2109375 C1.515625 1.8709375 1.515625 2.5309375 1.515625 3.2109375 C-0.60720169 4.21554281 -2.73270521 5.21449352 -4.859375 6.2109375 C-6.63441406 7.04625 -6.63441406 7.04625 -8.4453125 7.8984375 C-11.484375 9.2109375 -11.484375 9.2109375 -13.484375 9.2109375 C-13.484375 9.8709375 -13.484375 10.5309375 -13.484375 11.2109375 C-15.83876233 12.64038695 -16.96469933 13.29755011 -19.734375 12.8359375 C-20.311875 12.6296875 -20.889375 12.4234375 -21.484375 12.2109375 C-21.175 11.6334375 -20.865625 11.0559375 -20.546875 10.4609375 C-19.55854136 8.36799566 -18.9675137 6.46558475 -18.484375 4.2109375 C-18.154375 4.8709375 -17.824375 5.5309375 -17.484375 6.2109375 C-16.44796875 5.68242187 -15.4115625 5.15390625 -14.34375 4.609375 C-12.97436846 3.93406355 -11.60455381 3.25962985 -10.234375 2.5859375 C-9.55246094 2.2353125 -8.87054688 1.8846875 -8.16796875 1.5234375 C-3.04041483 -0.96566635 -3.04041483 -0.96566635 0 0 Z " fill="#131313" transform="translate(166.484375,138.7890625)"/>
<path d="M0 0 C-0.33 0.99 -0.66 1.98 -1 3 C-3.21484375 4.0625 -3.21484375 4.0625 -5.9375 5 C-10.212091 6.43347107 -10.212091 6.43347107 -13 10 C-16.0390625 10.94921875 -16.0390625 10.94921875 -19.625 11.6875 C-21.40777344 12.06455078 -21.40777344 12.06455078 -23.2265625 12.44921875 C-24.14179688 12.63097656 -25.05703125 12.81273437 -26 13 C-26 11.68 -26 10.36 -26 9 C-24.948125 8.71125 -23.89625 8.4225 -22.8125 8.125 C-18.30138932 6.82381049 -18.30138932 6.82381049 -14 5 C-13.67 4.01 -13.34 3.02 -13 2 C-8.73245628 -0.45707063 -4.7785882 -0.16198604 0 0 Z " fill="#C0C0C0" transform="translate(56,117)"/>
<path d="M0 0 C0.4375 2.1875 0.4375 2.1875 0 5 C-2.51699625 7.44432707 -5.39004446 10 -9 10 C-8.34 8.35 -7.68 6.7 -7 5 C-6.34 5 -5.68 5 -5 5 C-5 4.34 -5 3.68 -5 3 C-9.86502394 5.0880386 -14.46664714 7.25251342 -19 10 C-19.66 10 -20.32 10 -21 10 C-21 8 -21 8 -19.75 6.375 C-18 5 -18 5 -14 5 C-14 4.34 -14 3.68 -14 3 C-12.23358317 2.3012307 -10.46167336 1.61633417 -8.6875 0.9375 C-7.20830078 0.36322266 -7.20830078 0.36322266 -5.69921875 -0.22265625 C-3 -1 -3 -1 0 0 Z " fill="#D9D9D9" transform="translate(130,118)"/>
<path d="M0 0 C-0.8125 2.4375 -0.8125 2.4375 -2 5 C-2.99 5.33 -3.98 5.66 -5 6 C-5 5.34 -5 4.68 -5 4 C-5.680625 4.433125 -6.36125 4.86625 -7.0625 5.3125 C-9.62303527 6.78344579 -12.1633166 7.91588556 -14.88671875 9.0390625 C-19.39268852 11.08798775 -23.68134605 13.58686425 -28 16 C-28.33 15.01 -28.66 14.02 -29 13 C-27.824375 12.443125 -26.64875 11.88625 -25.4375 11.3125 C-22.47465341 9.84943062 -19.87755761 8.25059159 -17.25 6.25 C-14 4 -14 4 -10 4 C-10 3.34 -10 2.68 -10 2 C-8.7090864 1.66376204 -7.41723903 1.33110751 -6.125 1 C-5.40570313 0.814375 -4.68640625 0.62875 -3.9453125 0.4375 C-2 0 -2 0 0 0 Z " fill="#D1D1D1" transform="translate(116,130)"/>
<path d="M0 0 C6.6 0 13.2 0 20 0 C20.33 0.66 20.66 1.32 21 2 C20.01 2 19.02 2 18 2 C18 2.99 18 3.98 18 5 C16.02 5.33 14.04 5.66 12 6 C12 6.66 12 7.32 12 8 C10.68 8 9.36 8 8 8 C8 6.68 8 5.36 8 4 C7.34 4 6.68 4 6 4 C6 3.34 6 2.68 6 2 C3.03 1.505 3.03 1.505 0 1 C0 0.67 0 0.34 0 0 Z " fill="#1D1D1D" transform="translate(49,40)"/>
<path d="M0 0 C1.71447396 3.0223378 2.33665265 5.45810399 2.6328125 8.91015625 C2.7167627 9.88799072 2.80071289 10.8658252 2.88720703 11.87329102 C2.96567871 12.92572998 3.04415039 13.97816895 3.125 15.0625 C3.20991699 16.14909912 3.29483398 17.23569824 3.38232422 18.35522461 C4.27064098 30.89621974 4.19155038 43.43576841 4 56 C3.67 56 3.34 56 3 56 C2.98018066 55.32759277 2.96036133 54.65518555 2.93994141 53.96240234 C2.46717608 38.57532741 1.58045276 23.31351312 0 8 C-0.99 8 -1.98 8 -3 8 C-3.33 8.99 -3.66 9.98 -4 11 C-3.39301257 6.87248551 -1.96189209 3.6678852 0 0 Z " fill="#D3D3D3" transform="translate(137,112)"/>
<path d="M0 0 C0 0.99 0 1.98 0 3 C-0.66 3 -1.32 3 -2 3 C-2 3.66 -2 4.32 -2 5 C1.3 4.67 4.6 4.34 8 4 C8 5.32 8 6.64 8 8 C7.01 8.33 6.02 8.66 5 9 C5 8.34 5 7.68 5 7 C2.03 7.66 -0.94 8.32 -4 9 C-4 8.01 -4 7.02 -4 6 C-5.65 6 -7.3 6 -9 6 C-8.1875 3.5625 -8.1875 3.5625 -7 1 C-4 0 -4 0 0 0 Z " fill="#484848" transform="translate(112,145)"/>
<path d="M0 0 C-0.33 0.99 -0.66 1.98 -1 3 C-5.0916861 4.80795432 -8.55719328 5.21156222 -13 5 C-12.67 5.99 -12.34 6.98 -12 8 C-15.63 8 -19.26 8 -23 8 C-23.33 8.66 -23.66 9.32 -24 10 C-24.33 9.01 -24.66 8.02 -25 7 C-24.67 6.34 -24.34 5.68 -24 5 C-22.906875 4.855625 -21.81375 4.71125 -20.6875 4.5625 C-16.9547184 3.99309264 -15.8067951 3.30558169 -13 1 C-12.01 1 -11.02 1 -10 1 C-10 1.66 -10 2.32 -10 3 C-9.01 3 -8.02 3 -7 3 C-7 2.34 -7 1.68 -7 1 C-4 0 -4 0 0 0 Z " fill="#5D5D5D" transform="translate(106,129)"/>
<path d="M0 0 C0.99 0 1.98 0 3 0 C3 0.66 3 1.32 3 2 C3.66 2.33 4.32 2.66 5 3 C5 3.66 5 4.32 5 5 C-0.22771463 8.04157942 -3.92671312 9.50610724 -10 9 C-9.67 7.68 -9.34 6.36 -9 5 C-8.01 5 -7.02 5 -6 5 C-6 4.34 -6 3.68 -6 3 C-4.02 2.67 -2.04 2.34 0 2 C0 1.34 0 0.68 0 0 Z " fill="#D9D9D9" transform="translate(151,97)"/>
<path d="M0 0 C0.66 0 1.32 0 2 0 C1.67 0.99 1.34 1.98 1 3 C0.34 3 -0.32 3 -1 3 C-1 3.66 -1 4.32 -1 5 C-2.43429001 5.67354499 -3.87257057 6.33859701 -5.3125 7 C-6.11300781 7.37125 -6.91351563 7.7425 -7.73828125 8.125 C-10 9 -10 9 -13 9 C-13 9.66 -13 10.32 -13 11 C-15.64 11.33 -18.28 11.66 -21 12 C-21 12.66 -21 13.32 -21 14 C-21.99 14 -22.98 14 -24 14 C-24 13.01 -24 12.02 -24 11 C-23.01 11 -22.02 11 -21 11 C-21 10.34 -21 9.68 -21 9 C-20.39414063 8.84144531 -19.78828125 8.68289062 -19.1640625 8.51953125 C-8.81961385 5.74753181 -8.81961385 5.74753181 0 0 Z " fill="#757575" transform="translate(95,120)"/>
<path d="M0 0 C-5.50287523 3.99228203 -10.66571244 7.46628498 -17 10 C-17.804375 10.53625 -18.60875 11.0725 -19.4375 11.625 C-22.4961152 13.26620816 -24.57887154 13.23868338 -28 13 C-28 12.34 -28 11.68 -28 11 C-25.03 10.34 -22.06 9.68 -19 9 C-19 8.34 -19 7.68 -19 7 C-16.40163864 5.63354299 -13.79734444 4.28169331 -11.1875 2.9375 C-10.44951172 2.54755859 -9.71152344 2.15761719 -8.95117188 1.75585938 C-8.23896484 1.39169922 -7.52675781 1.02753906 -6.79296875 0.65234375 C-6.1383667 0.31195068 -5.48376465 -0.02844238 -4.80932617 -0.37915039 C-3 -1 -3 -1 0 0 Z " fill="#484848" transform="translate(172,141)"/>
<path d="M0 0 C0.99 0 1.98 0 3 0 C3 0.66 3 1.32 3 2 C3.99 1.67 4.98 1.34 6 1 C6 1.66 6 2.32 6 3 C5.01 3 4.02 3 3 3 C2.67 4.32 2.34 5.64 2 7 C-0.64 7.66 -3.28 8.32 -6 9 C-6.33 8.01 -6.66 7.02 -7 6 C-7.66 7.32 -8.32 8.64 -9 10 C-10.32 9.34 -11.64 8.68 -13 8 C-9.17829887 4.64153537 -5.65431936 2.87962897 -1 1 C-0.67 0.67 -0.34 0.34 0 0 Z " fill="#1E1E1E" transform="translate(108,134)"/>
<path d="M0 0 C0 0.66 0 1.32 0 2 C-0.66 2 -1.32 2 -2 2 C-2.66 3.65 -3.32 5.3 -4 7 C-3.34 7.33 -2.68 7.66 -2 8 C-2.969375 8.12375 -3.93875 8.2475 -4.9375 8.375 C-5.948125 8.58125 -6.95875 8.7875 -8 9 C-8.33 9.66 -8.66 10.32 -9 11 C-9 10.34 -9 9.68 -9 9 C-10.98 9.33 -12.96 9.66 -15 10 C-14.01 9.67 -13.02 9.34 -12 9 C-12 8.34 -12 7.68 -12 7 C-12.66 6.67 -13.32 6.34 -14 6 C-12.75443908 5.18071114 -11.50333365 4.36984814 -10.25 3.5625 C-9.20585938 2.88380859 -9.20585938 2.88380859 -8.140625 2.19140625 C-5.41493449 0.67437047 -3.11349412 0 0 0 Z " fill="#2A2A2A" transform="translate(125,121)"/>
<path d="M0 0 C2.31 0 4.62 0 7 0 C6.67 1.32 6.34 2.64 6 4 C7.32 4 8.64 4 10 4 C10 4.66 10 5.32 10 6 C9.34 6 8.68 6 8 6 C8 6.66 8 7.32 8 8 C4.04 9.65 0.08 11.3 -4 13 C-4.33 12.34 -4.66 11.68 -5 11 C-3.68 10.67 -2.36 10.34 -1 10 C-1 9.34 -1 8.68 -1 8 C0.98 7.67 2.96 7.34 5 7 C5 6.34 5 5.68 5 5 C4.01 5 3.02 5 2 5 C2 4.34 2 3.68 2 3 C1.01 3 0.02 3 -1 3 C-0.67 2.01 -0.34 1.02 0 0 Z " fill="#404040" transform="translate(34,146)"/>
<path d="M0 0 C0.66 0 1.32 0 2 0 C2 0.99 2 1.98 2 3 C2.66 3 3.32 3 4 3 C3 6 3 6 1.40625 7.0625 C-0.5 8 -0.5 8 -2.40625 8.9375 C-4.33757598 9.98949358 -4.33757598 9.98949358 -5 13 C-6.65 13.33 -8.3 13.66 -10 14 C-10 14.66 -10 15.32 -10 16 C-10.66 16 -11.32 16 -12 16 C-11.34 14.68 -10.68 13.36 -10 12 C-9.34 12 -8.68 12 -8 12 C-7.8453125 11.1028125 -7.8453125 11.1028125 -7.6875 10.1875 C-6.90088144 7.68462276 -5.86454169 6.78685245 -4 5 C-3.67 4.01 -3.34 3.02 -3 2 C-2.01 2 -1.02 2 0 2 C0 1.34 0 0.68 0 0 Z " fill="#7B7B7B" transform="translate(115,103)"/>
<path d="M0 0 C1.32 0 2.64 0 4 0 C4 1.65 4 3.3 4 5 C3.01 5 2.02 5 1 5 C1 6.65 1 8.3 1 10 C2.32 10.33 3.64 10.66 5 11 C4.67 11.66 4.34 12.32 4 13 C1.67843403 13.40729228 -0.6568787 13.74438677 -3 14 C-4.42857143 5.42857143 -4.42857143 5.42857143 -2 2 C-1.34 2 -0.68 2 0 2 C0 1.34 0 0.68 0 0 Z " fill="#3F3F3F" transform="translate(46,100)"/>
<path d="M0 0 C0.33 0 0.66 0 1 0 C1.02696365 1.79158489 1.04637917 3.58328473 1.0625 5.375 C1.07410156 6.37273437 1.08570313 7.37046875 1.09765625 8.3984375 C1 11 1 11 0 13 C1.32 13 2.64 13 4 13 C4 12.34 4 11.68 4 11 C7.465 10.505 7.465 10.505 11 10 C11.33 10.66 11.66 11.32 12 12 C10.68 11.67 9.36 11.34 8 11 C8 12.32 8 13.64 8 15 C6.02 15.33 4.04 15.66 2 16 C2 17.32 2 18.64 2 20 C1.34 20 0.68 20 0 20 C0 18.35 0 16.7 0 15 C-0.99 15.495 -0.99 15.495 -2 16 C-1.85936865 13.70800823 -1.71234057 11.41640814 -1.5625 9.125 C-1.48128906 7.84882812 -1.40007813 6.57265625 -1.31640625 5.2578125 C-1 2 -1 2 0 0 Z " fill="#272727" transform="translate(30,86)"/>
<path d="M0 0 C0.33 1.32 0.66 2.64 1 4 C0.34 4 -0.32 4 -1 4 C-1 5.32 -1 6.64 -1 8 C2.465 7.505 2.465 7.505 6 7 C6 6.34 6 5.68 6 5 C7.32 5 8.64 5 10 5 C10 6.32 10 7.64 10 9 C8.68 9 7.36 9 6 9 C6 9.66 6 10.32 6 11 C3.69 11.33 1.38 11.66 -1 12 C-1 11.34 -1 10.68 -1 10 C-1.66 10 -2.32 10 -3 10 C-2.25 3.375 -2.25 3.375 0 0 Z " fill="#545454" transform="translate(124,46)"/>
<path d="M0 0 C0.99 0 1.98 0 3 0 C3.103125 0.639375 3.20625 1.27875 3.3125 1.9375 C3.539375 2.618125 3.76625 3.29875 4 4 C4.99 4.33 5.98 4.66 7 5 C7 5.99 7 6.98 7 8 C6.030625 8.12375 5.06125 8.2475 4.0625 8.375 C3.051875 8.58125 2.04125 8.7875 1 9 C0.67 9.66 0.34 10.32 0 11 C-1.82941851 7.23355012 -2.23162684 5.03077875 -1 1 C-0.67 0.67 -0.34 0.34 0 0 Z " fill="#323232" transform="translate(84,166)"/>
<path d="M0 0 C0.99 0 1.98 0 3 0 C3 1.32 3 2.64 3 4 C1.0509375 4.3403125 1.0509375 4.3403125 -0.9375 4.6875 C-5.52679941 5.68076069 -9.08416174 7.51455191 -13.0546875 9.9765625 C-15 11 -15 11 -18 11 C-18 10.34 -18 9.68 -18 9 C-17.01 9 -16.02 9 -15 9 C-15 8.34 -15 7.68 -15 7 C-13.06532058 6.16013916 -11.12714871 5.32831973 -9.1875 4.5 C-8.10855469 4.0359375 -7.02960938 3.571875 -5.91796875 3.09375 C-3 2 -3 2 0 2 C0 1.34 0 0.68 0 0 Z " fill="#414141" transform="translate(167,134)"/>
<path d="M0 0 C1.32 0 2.64 0 4 0 C6 3 6 3 5.6875 4.9375 C5.460625 5.618125 5.23375 6.29875 5 7 C4.814375 7.7425 4.62875 8.485 4.4375 9.25 C4.293125 9.8275 4.14875 10.405 4 11 C3.34 10.67 2.68 10.34 2 10 C2 9.34 2 8.68 2 8 C0.35 8 -1.3 8 -3 8 C-3 8.66 -3 9.32 -3 10 C-3.66 10 -4.32 10 -5 10 C-6.625 7.5 -6.625 7.5 -8 5 C-6.3603125 5.061875 -6.3603125 5.061875 -4.6875 5.125 C-0.91107771 5.32074666 -0.91107771 5.32074666 2 3 C1.34 2.67 0.68 2.34 0 2 C0 1.34 0 0.68 0 0 Z " fill="#4F4F4F" transform="translate(112,167)"/>
<path d="M0 0 C0 0.66 0 1.32 0 2 C0.66 2.33 1.32 2.66 2 3 C2 3.99 2 4.98 2 6 C-1.465 7.485 -1.465 7.485 -5 9 C-5 8.34 -5 7.68 -5 7 C-5.99 7 -6.98 7 -8 7 C-7.8125 4.625 -7.8125 4.625 -7 2 C-4.54236535 0.67665827 -2.79402354 0 0 0 Z " fill="#6D6D6D" transform="translate(47,161)"/>
<path d="M0 0 C0.66 0.33 1.32 0.66 2 1 C2.40729228 3.32156597 2.74438677 5.6568787 3 8 C2.34 8 1.68 8 1 8 C0.34 9.32 -0.32 10.64 -1 12 C-2.32 12 -3.64 12 -5 12 C-5 11.34 -5 10.68 -5 10 C-6.65 10.33 -8.3 10.66 -10 11 C-10 10.34 -10 9.68 -10 9 C-9.34 9 -8.68 9 -8 9 C-8 8.34 -8 7.68 -8 7 C-5.36 6.67 -2.72 6.34 0 6 C0 4.02 0 2.04 0 0 Z " fill="#5A5A5A" transform="translate(83,81)"/>
<path d="M0 0 C2.171875 0.9140625 2.171875 0.9140625 4 2 C1.85792851 10.46379468 1.85792851 10.46379468 -1.5 12.5625 C-4 13 -4 13 -7 13 C-6.34 12.608125 -5.68 12.21625 -5 11.8125 C-2.74530409 10.15526007 -2.74530409 10.15526007 -2.625 7.4375 C-2.78103864 4.82471891 -2.78103864 4.82471891 -5 3 C-2.75 1.375 -2.75 1.375 0 0 Z " fill="#373737" transform="translate(132,113)"/>
<path d="M0 0 C-1.37285713 3.38260673 -2.55706059 4.6350574 -5.875 6.125 C-6.89207031 6.59292969 -6.89207031 6.59292969 -7.9296875 7.0703125 C-8.95449219 7.53050781 -8.95449219 7.53050781 -10 8 C-10.66257812 8.36867187 -11.32515625 8.73734375 -12.0078125 9.1171875 C-14 10 -14 10 -18 10 C-17 7 -17 7 -15.0390625 5.83203125 C-14.24242188 5.49558594 -13.44578125 5.15914062 -12.625 4.8125 C-11.43777344 4.29623047 -11.43777344 4.29623047 -10.2265625 3.76953125 C-8 3 -8 3 -5 3 C-5 2.34 -5 1.68 -5 1 C-2 0 -2 0 0 0 Z " fill="#4C4C4C" transform="translate(117,161)"/>
<path d="M0 0 C0.33 0.66 0.66 1.32 1 2 C2.65 1.67 4.3 1.34 6 1 C4.55873214 4.36295835 2.79407345 6.62927102 0 9 C-0.99 9 -1.98 9 -3 9 C-3 8.34 -3 7.68 -3 7 C-3.99 6.67 -4.98 6.34 -6 6 C-5.34 6 -4.68 6 -4 6 C-3.896875 5.38125 -3.79375 4.7625 -3.6875 4.125 C-3 2 -3 2 0 0 Z " fill="#262626" transform="translate(114,110)"/>
<path d="M0 0 C0.99 0 1.98 0 3 0 C3 0.66 3 1.32 3 2 C3.66 2.33 4.32 2.66 5 3 C5.33 2.01 5.66 1.02 6 0 C6 1.65 6 3.3 6 5 C6.66 5 7.32 5 8 5 C7.67 6.32 7.34 7.64 7 9 C6.67 8.34 6.34 7.68 6 7 C5.67 7.99 5.34 8.98 5 10 C3.35 10.33 1.7 10.66 0 11 C0 10.34 0 9.68 0 9 C0.66 8.67 1.32 8.34 2 8 C1.67 7.236875 1.34 6.47375 1 5.6875 C0 3 0 3 0 0 Z " fill="#333333" transform="translate(156,56)"/>
<path d="M0 0 C0.33 0 0.66 0 1 0 C0.46065519 6.03214585 -0.20340506 12.05111002 -0.9375 18.0625 C-1.09089844 19.35285156 -1.24429688 20.64320313 -1.40234375 21.97265625 C-1.59957031 22.97167969 -1.79679687 23.97070312 -2 25 C-2.66 25.33 -3.32 25.66 -4 26 C-3.9278125 25.40574219 -3.855625 24.81148437 -3.78125 24.19921875 C-3.06182721 17.77437359 -2.88944165 11.46152127 -3 5 C-3.66 4.67 -4.32 4.34 -5 4 C-4.01 4 -3.02 4 -2 4 C-1.34 2.68 -0.68 1.36 0 0 Z " fill="#5E5E5E" transform="translate(57,125)"/>
<path d="M0 0 C0.66 0.33 1.32 0.66 2 1 C0.49145828 4.01708345 -1.89269057 4.64457302 -4.875 6.125 C-5.94492187 6.66382812 -7.01484375 7.20265625 -8.1171875 7.7578125 C-11 9 -11 9 -14 9 C-14 9.66 -14 10.32 -14 11 C-14.99 11 -15.98 11 -17 11 C-17 10.01 -17 9.02 -17 8 C-15.91332031 7.51080078 -15.91332031 7.51080078 -14.8046875 7.01171875 C-13.83789062 6.57472656 -12.87109375 6.13773437 -11.875 5.6875 C-10.87339844 5.23503906 -9.87179688 4.78257813 -8.83984375 4.31640625 C-6.66375812 3.3076843 -4.54944343 2.25733875 -2.4375 1.125 C-1.2309375 0.568125 -1.2309375 0.568125 0 0 Z " fill="#757575" transform="translate(57,67)"/>
<path d="M0 0 C0.53625 0.391875 1.0725 0.78375 1.625 1.1875 C1.625 1.8475 1.625 2.5075 1.625 3.1875 C0.35808493 3.86158308 -0.91370749 4.52650497 -2.1875 5.1875 C-2.89519531 5.55875 -3.60289062 5.93 -4.33203125 6.3125 C-6.375 7.1875 -6.375 7.1875 -9.375 7.1875 C-9.25 4.875 -9.25 4.875 -8.375 2.1875 C-3.47426262 -1.18856353 -3.47426262 -1.18856353 0 0 Z " fill="#0B0B0B" transform="translate(166.375,138.8125)"/>
<path d="M0 0 C-0.9885347 2.69600373 -1.65977636 3.80558649 -4.1875 5.25 C-7.54230653 6.14461507 -10.54297098 6.13556977 -14 6 C-14 5.34 -14 4.68 -14 4 C-13.01 4 -12.02 4 -11 4 C-11 3.34 -11 2.68 -11 2 C-3.375 0 -3.375 0 0 0 Z " fill="#808080" transform="translate(165,122)"/>
<path d="M0 0 C0.99 0.33 1.98 0.66 3 1 C3 1.66 3 2.32 3 3 C3.99 3 4.98 3 6 3 C4.89184175 6.21365891 4.01470446 6.9914224 1 8.75 C-2 10 -2 10 -4 10 C-3.6875 8.125 -3.6875 8.125 -3 6 C-2.01 5.34 -1.02 4.68 0 4 C0 2.68 0 1.36 0 0 Z " fill="#5A5A5A" transform="translate(130,101)"/>
<path d="M0 0 C0.99 0 1.98 0 3 0 C3.12375 0.639375 3.2475 1.27875 3.375 1.9375 C3.58125 2.618125 3.7875 3.29875 4 4 C4.66 4.33 5.32 4.66 6 5 C6 5.66 6 6.32 6 7 C5.071875 7.12375 4.14375 7.2475 3.1875 7.375 C-0.13925235 7.81533082 -0.13925235 7.81533082 -3 10 C-3.99 10 -4.98 10 -6 10 C-6 9.34 -6 8.68 -6 8 C-5.195625 7.566875 -4.39125 7.13375 -3.5625 6.6875 C-0.75717669 5.23212941 -0.75717669 5.23212941 -0.1875 2.3125 C-0.125625 1.549375 -0.06375 0.78625 0 0 Z " fill="#3B3B3B" transform="translate(145,89)"/>
<path d="M0 0 C0 0.66 0 1.32 0 2 C0.99 2.33 1.98 2.66 3 3 C1.4375 4.5625 1.4375 4.5625 -1 6 C-4.75 5.6875 -4.75 5.6875 -8 5 C-8 4.01 -8 3.02 -8 2 C-5.09399739 0.74335022 -3.20395416 0 0 0 Z " fill="#0E0E0E" transform="translate(112,167)"/>
<path d="M0 0 C0.33 0 0.66 0 1 0 C3.29612756 18.82004556 3.29612756 18.82004556 3 28 C2.34 28 1.68 28 1 28 C0.0178006 24.72373625 -0.11580914 21.77211881 -0.09765625 18.359375 C-0.09443359 17.28945312 -0.09121094 16.21953125 -0.08789062 15.1171875 C-0.07951172 14.00601563 -0.07113281 12.89484375 -0.0625 11.75 C-0.05798828 10.62335938 -0.05347656 9.49671875 -0.04882812 8.3359375 C-0.03705397 5.55723783 -0.0206084 2.77864591 0 0 Z " fill="#5D5D5D" transform="translate(171,103)"/>
<path d="M0 0 C0 0.66 0 1.32 0 2 C-2.90548882 4.04169485 -4.40142046 5 -8 5 C-8 5.66 -8 6.32 -8 7 C-10.64 7.66 -13.28 8.32 -16 9 C-15.375 7.125 -15.375 7.125 -14 5 C-11.1875 3.9375 -11.1875 3.9375 -8 3 C-7.113125 2.46375 -6.22625 1.9275 -5.3125 1.375 C-3 0 -3 0 0 0 Z " fill="#8C8C8C" transform="translate(52,65)"/>
<path d="M0 0 C0 0.66 0 1.32 0 2 C-0.969375 2.474375 -1.93875 2.94875 -2.9375 3.4375 C-5.80477437 4.70193947 -5.80477437 4.70193947 -7 6 C-8.66617115 6.04063832 -10.33388095 6.042721 -12 6 C-12 6.66 -12 7.32 -12 8 C-12.99 8 -13.98 8 -15 8 C-15 6.68 -15 5.36 -15 4 C-13.865625 3.87625 -12.73125 3.7525 -11.5625 3.625 C-10.386875 3.41875 -9.21125 3.2125 -8 3 C-7.67 2.34 -7.34 1.68 -7 1 C-4.51587793 0.17195931 -2.64779693 0 0 0 Z " fill="#A8A8A8" transform="translate(156,111)"/>
<path d="M0 0 C0.99 0 1.98 0 3 0 C3 0.99 3 1.98 3 3 C4.65 3 6.3 3 8 3 C8 3.66 8 4.32 8 5 C6.02 5.33 4.04 5.66 2 6 C2 6.66 2 7.32 2 8 C1.34 8 0.68 8 0 8 C-0.33 7.01 -0.66 6.02 -1 5 C-1.66 5 -2.32 5 -3 5 C-3 4.01 -3 3.02 -3 2 C-2.01 2 -1.02 2 0 2 C0 1.34 0 0.68 0 0 Z " fill="#606060" transform="translate(124,62)"/>
<path d="M0 0 C0.33 0.66 0.66 1.32 1 2 C0.34 2 -0.32 2 -1 2 C-1 2.66 -1 3.32 -1 4 C0.32 4.33 1.64 4.66 3 5 C-1.29 5.99 -5.58 6.98 -10 8 C-10 6.68 -10 5.36 -10 4 C-8.906875 3.71125 -7.81375 3.4225 -6.6875 3.125 C-2.95986155 2.18106796 -2.95986155 2.18106796 0 0 Z " fill="#707070" transform="translate(40,122)"/>
<path d="M0 0 C-0.66 2.31 -1.32 4.62 -2 7 C-3.32 7 -4.64 7 -6 7 C-6 5.68 -6 4.36 -6 3 C-6.66 3 -7.32 3 -8 3 C-7.67 2.01 -7.34 1.02 -7 0 C-2.25 -1.125 -2.25 -1.125 0 0 Z " fill="#454545" transform="translate(33,139)"/>
<path d="M0 0 C0.66 0 1.32 0 2 0 C1.6875 1.9375 1.6875 1.9375 1 4 C0.01 4.33 -0.98 4.66 -2 5 C-2 5.66 -2 6.32 -2 7 C-3.65 7.33 -5.3 7.66 -7 8 C-6.34 5.69 -5.68 3.38 -5 1 C-4.01 1 -3.02 1 -2 1 C-2 1.66 -2 2.32 -2 3 C-1.34 3 -0.68 3 0 3 C0 2.01 0 1.02 0 0 Z " fill="#6D6D6D" transform="translate(45,53)"/>
<path d="M0 0 C0 1.32 0 2.64 0 4 C-0.99 4.33 -1.98 4.66 -3 5 C-3 4.34 -3 3.68 -3 3 C-5.31 3.33 -7.62 3.66 -10 4 C-10 3.01 -10 2.02 -10 1 C-6.59437148 0.22157062 -3.49234244 -0.09978121 0 0 Z " fill="#A7A7A7" transform="translate(120,149)"/>
<path d="M0 0 C1 2 1 2 0.44140625 4.1640625 C0.15136719 4.97617188 -0.13867188 5.78828125 -0.4375 6.625 C-0.72496094 7.44226563 -1.01242188 8.25953125 -1.30859375 9.1015625 C-1.65083984 10.04128906 -1.65083984 10.04128906 -2 11 C-3 9 -3 9 -3 6 C-3.33 6.33 -3.66 6.66 -4 7 C-5.66617115 7.04063832 -7.33388095 7.042721 -9 7 C-5.54421769 2.18658892 -5.54421769 2.18658892 -2.8125 1.25 C-2.214375 1.1675 -1.61625 1.085 -1 1 C-0.67 0.67 -0.34 0.34 0 0 Z " fill="#5C5C5C" transform="translate(126,142)"/>
<path d="M0 0 C0.66 0.66 1.32 1.32 2 2 C1.67 2.66 1.34 3.32 1 4 C1.66 4.33 2.32 4.66 3 5 C2.030625 5.12375 1.06125 5.2475 0.0625 5.375 C-1.4534375 5.684375 -1.4534375 5.684375 -3 6 C-3.33 6.66 -3.66 7.32 -4 8 C-4 7.34 -4 6.68 -4 6 C-5.98 6.33 -7.96 6.66 -10 7 C-9.01 6.67 -8.02 6.34 -7 6 C-7 5.34 -7 4.68 -7 4 C-7.66 3.67 -8.32 3.34 -9 3 C-7.35 2.34 -5.7 1.68 -4 1 C-4.33 1.99 -4.66 2.98 -5 4 C-3.35 4 -1.7 4 0 4 C0 2.68 0 1.36 0 0 Z " fill="#4E4E4E" transform="translate(120,124)"/>
<path d="M0 0 C0.33 1.32 0.66 2.64 1 4 C1.33 3.67 1.66 3.34 2 3 C3.66617115 2.95936168 5.33388095 2.957279 7 3 C7 3.66 7 4.32 7 5 C6.01 5 5.02 5 4 5 C4 5.66 4 6.32 4 7 C2.35 7 0.7 7 -1 7 C-1.66 8.32 -2.32 9.64 -3 11 C-3.39253254 6.55129785 -2.15305957 3.85756507 0 0 Z " fill="#717171" transform="translate(116,66)"/>
<path d="M0 0 C1.4783226 2.95664519 1.06032783 5.74229737 1 9 C0.34 9 -0.32 9 -1 9 C-1 8.01 -1 7.02 -1 6 C-1.99 5.67 -2.98 5.34 -4 5 C-3.67 4.34 -3.34 3.68 -3 3 C-3.99 3.33 -4.98 3.66 -6 4 C-6 3.34 -6 2.68 -6 2 C-2.25 0 -2.25 0 0 0 Z " fill="#1C1C1C" transform="translate(50,158)"/>
<path d="M0 0 C0 0.99 0 1.98 0 3 C-3.63 3.66 -7.26 4.32 -11 5 C-10.34 3.68 -9.68 2.36 -9 1 C-5.85335593 0.00632292 -3.33401374 0 0 0 Z " fill="#757575" transform="translate(79,122)"/>
<path d="M0 0 C0.66 0.33 1.32 0.66 2 1 C-1.28466137 4.67882073 -4.66360908 6.75150101 -9 9 C-9.66 9 -10.32 9 -11 9 C-11 7 -11 7 -9.75 5.375 C-8 4 -8 4 -4 4 C-4 3.34 -4 2.68 -4 2 C-2.125 0.9375 -2.125 0.9375 0 0 Z " fill="#979797" transform="translate(120,119)"/>
<path d="M0 0 C0 0.66 0 1.32 0 2 C-1.609375 3.32421875 -1.609375 3.32421875 -3.75 4.6875 C-4.44609375 5.14511719 -5.1421875 5.60273437 -5.859375 6.07421875 C-8.39090725 7.16906025 -9.46100862 6.9435441 -12 6 C-10.56839732 4.99157547 -9.12948547 3.99352109 -7.6875 3 C-6.88699219 2.443125 -6.08648437 1.88625 -5.26171875 1.3125 C-3 0 -3 0 0 0 Z " fill="#484848" transform="translate(121,93)"/>
<path d="M0 0 C0.36923077 6.52307692 0.36923077 6.52307692 -1.5 8.9375 C-1.995 9.288125 -2.49 9.63875 -3 10 C-3 8.35 -3 6.7 -3 5 C-4.32 4.67 -5.64 4.34 -7 4 C-1.125 0 -1.125 0 0 0 Z " fill="#0E0E0E" transform="translate(119,162)"/>
<path d="M0 0 C1.32 0 2.64 0 4 0 C4 1.65 4 3.3 4 5 C3.01 5 2.02 5 1 5 C1 5.66 1 6.32 1 7 C-0.65 7.33 -2.3 7.66 -4 8 C-3.34 6.02 -2.68 4.04 -2 2 C-1.34 2 -0.68 2 0 2 C0 1.34 0 0.68 0 0 Z " fill="#343434" transform="translate(46,100)"/>
<path d="M0 0 C0.66 0 1.32 0 2 0 C2 0.99 2 1.98 2 3 C2.66 3 3.32 3 4 3 C3.67 3.99 3.34 4.98 3 6 C0 7 0 7 -2.1875 6.0625 C-2.785625 5.711875 -3.38375 5.36125 -4 5 C-3.67 4.01 -3.34 3.02 -3 2 C-2.01 2 -1.02 2 0 2 C0 1.34 0 0.68 0 0 Z " fill="#4F4F4F" transform="translate(115,103)"/>
<path d="M0 0 C0.66 0.33 1.32 0.66 2 1 C2.625 3.0625 2.625 3.0625 3 5 C1.02 5.33 -0.96 5.66 -3 6 C-3 5.34 -3 4.68 -3 4 C-3.66 3.67 -4.32 3.34 -5 3 C-4.34 3 -3.68 3 -3 3 C-3 2.34 -3 1.68 -3 1 C-2.01 0.67 -1.02 0.34 0 0 Z " fill="#161616" transform="translate(120,129)"/>
<path d="M0 0 C2.64 0 5.28 0 8 0 C7.67 0.99 7.34 1.98 7 3 C2.545 3.495 2.545 3.495 -2 4 C-1.34 2.68 -0.68 1.36 0 0 Z " fill="#D7D7D7" transform="translate(48,117)"/>
<path d="M0 0 C2.67866031 5.35732063 0.56615017 14.73289047 -1.0625 20.375 C-1.371875 21.24125 -1.68125 22.1075 -2 23 C-2.33 23 -2.66 23 -3 23 C-3.125 15.25 -3.125 15.25 -2 13 C-1.68567477 9.88730709 -1.48910126 6.77382422 -1.28125 3.65234375 C-1 1 -1 1 0 0 Z " fill="#A0A0A0" transform="translate(26,106)"/>
<path d="M0 0 C0 0.66 0 1.32 0 2 C0.66 2 1.32 2 2 2 C2 3.32 2 4.64 2 6 C0.68 6 -0.64 6 -2 6 C-2 5.34 -2 4.68 -2 4 C-2.99 4 -3.98 4 -5 4 C-5 3.01 -5 2.02 -5 1 C-2 0 -2 0 0 0 Z " fill="#555555" transform="translate(69,49)"/>
<path d="M0 0 C-0.8125 2.4375 -0.8125 2.4375 -2 5 C-2.99 5.33 -3.98 5.66 -5 6 C-5 5.34 -5 4.68 -5 4 C-6.65 3.67 -8.3 3.34 -10 3 C-6.71687741 1.24118433 -3.76143005 0 0 0 Z " fill="#A3A3A3" transform="translate(116,130)"/>
<path d="M0 0 C2.475 0.495 2.475 0.495 5 1 C5 1.66 5 2.32 5 3 C5.99 3.33 6.98 3.66 8 4 C8.6875 6.0625 8.6875 6.0625 9 8 C7.35 7.67 5.7 7.34 4 7 C4 6.01 4 5.02 4 4 C3.34 3.67 2.68 3.34 2 3 C2.33 2.34 2.66 1.68 3 1 C2.01 0.67 1.02 0.34 0 0 Z " fill="#2C2C2C" transform="translate(162,121)"/>
<path d="M0 0 C1.32 0 2.64 0 4 0 C4 1.32 4 2.64 4 4 C-0.455 4.495 -0.455 4.495 -5 5 C-4.67 4.01 -4.34 3.02 -4 2 C-2.68 2 -1.36 2 0 2 C0 1.34 0 0.68 0 0 Z " fill="#A1A1A1" transform="translate(130,51)"/>
<path d="M0 0 C0 0.66 0 1.32 0 2 C-4.95 4.475 -4.95 4.475 -10 7 C-10.66 6.34 -11.32 5.68 -12 5 C-10.68 4.67 -9.36 4.34 -8 4 C-8 3.34 -8 2.68 -8 2 C-2.25 0 -2.25 0 0 0 Z " fill="#8D8D8D" transform="translate(41,152)"/>
<path d="M0 0 C0.33 0.66 0.66 1.32 1 2 C1.99 2.33 2.98 2.66 4 3 C4 4.66666667 4 6.33333333 4 8 C1.03 7.505 1.03 7.505 -2 7 C-1.34 4.69 -0.68 2.38 0 0 Z " fill="#1C1C1C" transform="translate(42,143)"/>
<path d="M0 0 C2.25 0.25 2.25 0.25 4 1 C4 1.99 4 2.98 4 4 C2.68 3.67 1.36 3.34 0 3 C0 3.66 0 4.32 0 5 C-0.66 5 -1.32 5 -2 5 C-2.33 5.66 -2.66 6.32 -3 7 C-3.33 6.01 -3.66 5.02 -4 4 C-2.25 1.9375 -2.25 1.9375 0 0 Z " fill="#414141" transform="translate(124,78)"/>
<path d="M0 0 C-1.875 3.875 -1.875 3.875 -3 5 C-4.66617115 5.04063832 -6.33388095 5.042721 -8 5 C-8.33 4.01 -8.66 3.02 -9 2 C-3.375 0 -3.375 0 0 0 Z " fill="#808080" transform="translate(150,76)"/>
<path d="M0 0 C-0.33 0.99 -0.66 1.98 -1 3 C-4.6037898 4.52160014 -7.05220686 5 -11 5 C-11 4.34 -11 3.68 -11 3 C-9.68 3 -8.36 3 -7 3 C-7 2.34 -7 1.68 -7 1 C-4 0 -4 0 0 0 Z " fill="#7C7C7C" transform="translate(106,129)"/>
<path d="M0 0 C1.98 0 3.96 0 6 0 C5.67 1.32 5.34 2.64 5 4 C4.34 4 3.68 4 3 4 C3 4.66 3 5.32 3 6 C2.34 6 1.68 6 1 6 C0.67 4.02 0.34 2.04 0 0 Z " fill="#727272" transform="translate(130,71)"/>
<path d="M0 0 C-1 3 -1 3 -2.6875 4.1875 C-5.54969093 5.19313465 -7.98827908 5.13689641 -11 5 C-11 4.34 -11 3.68 -11 3 C-9.54293274 2.49632243 -8.08429904 1.99717444 -6.625 1.5 C-5.81289062 1.2215625 -5.00078125 0.943125 -4.1640625 0.65625 C-2 0 -2 0 0 0 Z " fill="#9F9F9F" transform="translate(155,149)"/>
<path d="M0 0 C2.97 0 5.94 0 9 0 C9 0.66 9 1.32 9 2 C5.7 2.66 2.4 3.32 -1 4 C-0.67 2.68 -0.34 1.36 0 0 Z " fill="#5C5C5C" transform="translate(131,44)"/>
<path d="M0 0 C-0.33 1.32 -0.66 2.64 -1 4 C-2.32 4 -3.64 4 -5 4 C-5.33 5.32 -5.66 6.64 -6 8 C-6.33 5.69 -6.66 3.38 -7 1 C-4.50935112 0.31292445 -2.62113708 0 0 0 Z " fill="#5C5C5C" transform="translate(77,139)"/>
<path d="M0 0 C-1.76956458 2.14210449 -2.87575652 2.96060573 -5.5625 3.8125 C-6.7690625 3.9053125 -6.7690625 3.9053125 -8 4 C-8.66 3.34 -9.32 2.68 -10 2 C-3.375 -1.125 -3.375 -1.125 0 0 Z " fill="#C6C6C6" transform="translate(109,134)"/>
<path d="M0 0 C-0.33 0.99 -0.66 1.98 -1 3 C-4.80269732 4.6900877 -7.05272168 5.19873962 -11 4 C-9.73308493 3.32591692 -8.46129251 2.66099503 -7.1875 2 C-6.47980469 1.62875 -5.77210937 1.2575 -5.04296875 0.875 C-3 0 -3 0 0 0 Z " fill="#ACACAC" transform="translate(54,130)"/>
<path d="M0 0 C1.98 0 3.96 0 6 0 C5.34 1.98 4.68 3.96 4 6 C3.34 6 2.68 6 2 6 C0 3 0 3 0 0 Z " fill="#252525" transform="translate(160,114)"/>
<path d="M0 0 C0 0.66 0 1.32 0 2 C-5.625 5 -5.625 5 -9 5 C-9 4.01 -9 3.02 -9 2 C-2.25 0 -2.25 0 0 0 Z " fill="#717171" transform="translate(121,87)"/>
<path d="M0 0 C0.66 0.33 1.32 0.66 2 1 C1.030625 1.680625 0.06125 2.36125 -0.9375 3.0625 C-3.7813447 5.39110695 -3.98914562 5.95270592 -4.875 9.8125 C-4.91625 10.864375 -4.9575 11.91625 -5 13 C-5.33 13 -5.66 13 -6 13 C-6.08131463 11.56344146 -6.13933559 10.1255517 -6.1875 8.6875 C-6.22230469 7.88699219 -6.25710937 7.08648437 -6.29296875 6.26171875 C-6 4 -6 4 -4.67578125 2.26953125 C-3 1 -3 1 0 0 Z " fill="#3C3C3C" transform="translate(43,41)"/>
<path d="M0 0 C0 0.66 0 1.32 0 2 C-2.90567134 4.01782732 -5.51669784 5.35494404 -9 6 C-8.00269864 3.5067466 -7.34925469 2.22532561 -5.0625 0.75 C-3 0 -3 0 0 0 Z " fill="#D4D4D4" transform="translate(52,139)"/>
<path d="M0 0 C-0.99 0 -1.98 0 -3 0 C-3 0.99 -3 1.98 -3 3 C-5.64 3.66 -8.28 4.32 -11 5 C-4.74206349 -1.42261905 -4.74206349 -1.42261905 0 0 Z " fill="#4F4F4F" transform="translate(70,42)"/>
<path d="M0 0 C2.64 0 5.28 0 8 0 C8 0.66 8 1.32 8 2 C8.66 2.33 9.32 2.66 10 3 C8.35 3 6.7 3 5 3 C5 3.66 5 4.32 5 5 C4.34 5 3.68 5 3 5 C1.375 2.5 1.375 2.5 0 0 Z " fill="#333333" transform="translate(104,172)"/>
<path d="M0 0 C-2.31 1.65 -4.62 3.3 -7 5 C-8.32 4.34 -9.64 3.68 -11 3 C-9.68 3 -8.36 3 -7 3 C-7 2.34 -7 1.68 -7 1 C-3.375 -1.125 -3.375 -1.125 0 0 Z " fill="#A8A8A8" transform="translate(161,158)"/>
<path d="M0 0 C0.99 0 1.98 0 3 0 C3 0.66 3 1.32 3 2 C3.99 1.67 4.98 1.34 6 1 C6 1.66 6 2.32 6 3 C5.01 3 4.02 3 3 3 C2.67 3.99 2.34 4.98 2 6 C1.01 6 0.02 6 -1 6 C-1 5.01 -1 4.02 -1 3 C-0.01 3 0.98 3 2 3 C1.01 2.34 0.02 1.68 -1 1 C-0.67 0.67 -0.34 0.34 0 0 Z " fill="#333333" transform="translate(108,134)"/>
<path d="M0 0 C0.99 0 1.98 0 3 0 C2.814375 0.61875 2.62875 1.2375 2.4375 1.875 C1.76313824 4.04160178 1.76313824 4.04160178 3 6 C1.02 6.33 -0.96 6.66 -3 7 C-2.01 4.69 -1.02 2.38 0 0 Z " fill="#555555" transform="translate(43,130)"/>
<path d="M0 0 C2.31 0.33 4.62 0.66 7 1 C6.01 2.485 6.01 2.485 5 4 C5 4.66 5 5.32 5 6 C4.01 5.67 3.02 5.34 2 5 C2 4.34 2 3.68 2 3 C1.34 3 0.68 3 0 3 C0 2.01 0 1.02 0 0 Z " fill="#2B2B2B" transform="translate(148,127)"/>
<path d="M0 0 C-0.625 1.9375 -0.625 1.9375 -2 4 C-5.125 4.75 -5.125 4.75 -8 5 C-8 4.34 -8 3.68 -8 3 C-7.34 3 -6.68 3 -6 3 C-6 2.34 -6 1.68 -6 1 C-3.92446352 0.4465236 -2.15634036 0 0 0 Z " fill="#767676" transform="translate(58,103)"/>
<path d="M0 0 C1.32 0.66 2.64 1.32 4 2 C4 2.66 4 3.32 4 4 C3.34 4 2.68 4 2 4 C2 4.66 2 5.32 2 6 C0.68 5.34 -0.64 4.68 -2 4 C-2 3.34 -2 2.68 -2 2 C-1.34 2 -0.68 2 0 2 C0 1.34 0 0.68 0 0 Z " fill="#3F3F3F" transform="translate(124,99)"/>
<path d="M0 0 C1.98 0 3.96 0 6 0 C6 0.66 6 1.32 6 2 C6.66 2 7.32 2 8 2 C8 1.34 8 0.68 8 0 C8.99 0.33 9.98 0.66 11 1 C10.67 2.32 10.34 3.64 10 5 C9.01 5 8.02 5 7 5 C7 4.34 7 3.68 7 3 C6.34 3 5.68 3 5 3 C5 2.34 5 1.68 5 1 C3.35 1 1.7 1 0 1 C0 0.67 0 0.34 0 0 Z " fill="#232323" transform="translate(118,68)"/>
<path d="M0 0 C0.66 0.33 1.32 0.66 2 1 C1.01 1.33 0.02 1.66 -1 2 C-1 2.66 -1 3.32 -1 4 C-2.1875 5.625 -2.1875 5.625 -4 7 C-6.6875 7.1875 -6.6875 7.1875 -9 7 C-6.03716687 4.61327331 -3.05729491 2.2646629 0 0 Z " fill="#9F9F9F" transform="translate(165,161)"/>
<path d="M0 0 C0 0.99 0 1.98 0 3 C0.66 3.33 1.32 3.66 2 4 C0.35 4.33 -1.3 4.66 -3 5 C-3.33 4.01 -3.66 3.02 -4 2 C-4.66 1.67 -5.32 1.34 -6 1 C-3.92446352 0.4465236 -2.15634036 0 0 0 Z " fill="#404040" transform="translate(31,152)"/>
<path d="M0 0 C1.98 0 3.96 0 6 0 C6.33 0.99 6.66 1.98 7 3 C5.02 3 3.04 3 1 3 C0.67 3.66 0.34 4.32 0 5 C-0.33 4.01 -0.66 3.02 -1 2 C-0.67 1.34 -0.34 0.68 0 0 Z " fill="#383838" transform="translate(82,134)"/>
<path d="M0 0 C-0.6875 1.9375 -0.6875 1.9375 -2 4 C-4.625 4.75 -4.625 4.75 -7 5 C-6.6875 3.0625 -6.6875 3.0625 -6 1 C-3 0 -3 0 0 0 Z " fill="#ADADAD" transform="translate(133,106)"/>
<path d="M0 0 C0.66 0.33 1.32 0.66 2 1 C0.47298956 4.05402088 -1.95157912 4.65869481 -5 6 C-5.99 6 -6.98 6 -8 6 C-8 5.34 -8 4.68 -8 4 C-6.71349294 3.30289269 -5.42059335 2.61757124 -4.125 1.9375 C-3.40570313 1.55464844 -2.68640625 1.17179687 -1.9453125 0.77734375 C-1.30335937 0.52082031 -0.66140625 0.26429687 0 0 Z " fill="#959595" transform="translate(57,67)"/>
<path d="M0 0 C2.3125 0.8125 2.3125 0.8125 4 2 C3.01 3.485 3.01 3.485 2 5 C-2 5 -2 5 -5 3 C-2.75 1.375 -2.75 1.375 0 0 Z " fill="#5C5C5C" transform="translate(132,113)"/>
<path d="M0 0 C0 0.66 0 1.32 0 2 C-5.75 5 -5.75 5 -8 5 C-8 4.01 -8 3.02 -8 2 C-2.25 0 -2.25 0 0 0 Z " fill="#4D4D4D" transform="translate(40,100)"/>
<path d="M0 0 C0.99 0.33 1.98 0.66 3 1 C1.1875 3.5 1.1875 3.5 -1 6 C-1.99 6 -2.98 6 -4 6 C-4 5.34 -4 4.68 -4 4 C-3.34 4 -2.68 4 -2 4 C-2 3.01 -2 2.02 -2 1 C-1.34 0.67 -0.68 0.34 0 0 Z " fill="#424242" transform="translate(58,55)"/>
<path d="M0 0 C-0.6875 1.9375 -0.6875 1.9375 -2 4 C-4.625 4.75 -4.625 4.75 -7 5 C-7 4.34 -7 3.68 -7 3 C-6.34 3 -5.68 3 -5 3 C-5 2.34 -5 1.68 -5 1 C-2 0 -2 0 0 0 Z " fill="#737373" transform="translate(117,161)"/>
<path d="M0 0 C0 0.66 0 1.32 0 2 C-2.90548882 4.04169485 -4.40142046 5 -8 5 C-7.67 4.01 -7.34 3.02 -7 2 C-4.56723614 0.81480735 -2.71982714 0 0 0 Z " fill="#8C8C8C" transform="translate(47,161)"/>
<path d="M0 0 C1.32 0 2.64 0 4 0 C4 0.99 4 1.98 4 3 C2.02 3.33 0.04 3.66 -2 4 C-1.34 2.68 -0.68 1.36 0 0 Z " fill="#DEDEDE" transform="translate(108,145)"/>
<path d="M0 0 C0.53625 0.391875 1.0725 0.78375 1.625 1.1875 C-0.99938979 2.93709319 -2.34047627 3.80818453 -5.375 4.1875 C-6.365 3.5275 -7.355 2.8675 -8.375 2.1875 C-2.95961538 -1.0125 -2.95961538 -1.0125 0 0 Z " fill="#131313" transform="translate(52.375,67.8125)"/>
<path d="M0 0 C-0.375 2.4375 -0.375 2.4375 -1 5 C-1.99 5.495 -1.99 5.495 -3 6 C-3 5.34 -3 4.68 -3 4 C-3.99 3.67 -4.98 3.34 -6 3 C-2.25 0 -2.25 0 0 0 Z " fill="#282828" transform="translate(170,155)"/>
<path d="M0 0 C0.99 0 1.98 0 3 0 C2.67 2.31 2.34 4.62 2 7 C1.34 7 0.68 7 0 7 C0 6.34 0 5.68 0 5 C-0.66 4.67 -1.32 4.34 -2 4 C-0.68 3.67 0.64 3.34 2 3 C2 2.34 2 1.68 2 1 C1.34 0.67 0.68 0.34 0 0 Z " fill="#606060" transform="translate(50,138)"/>
<path d="M0 0 C0 0.66 0 1.32 0 2 C-2.90548882 4.04169485 -4.40142046 5 -8 5 C-8 4.34 -8 3.68 -8 3 C-7.01 3 -6.02 3 -5 3 C-5 2.34 -5 1.68 -5 1 C-2 0 -2 0 0 0 Z " fill="#989898" transform="translate(157,140)"/>
<path d="M0 0 C-0.99 0.33 -1.98 0.66 -3 1 C-4.20882096 3.00016466 -4.20882096 3.00016466 -5 5 C-5.66 4.67 -6.32 4.34 -7 4 C-7 2.68 -7 1.36 -7 0 C-2.25 -1.125 -2.25 -1.125 0 0 Z " fill="#404040" transform="translate(112,125)"/>
<path d="M0 0 C0.33 0.66 0.66 1.32 1 2 C-0.25 4.625 -0.25 4.625 -2 7 C-2.99 7 -3.98 7 -5 7 C-3.70700306 4.11562221 -2.34058637 2.12780579 0 0 Z " fill="#131313" transform="translate(38,112)"/>
<path d="M0 0 C0.66 0 1.32 0 2 0 C2 0.66 2 1.32 2 2 C2.66 2.33 3.32 2.66 4 3 C3.01 3 2.02 3 1 3 C1 3.66 1 4.32 1 5 C1.66 5 2.32 5 3 5 C2.67 5.99 2.34 6.98 2 8 C2 7.34 2 6.68 2 6 C1.34 6 0.68 6 0 6 C-1.125 2.25 -1.125 2.25 0 0 Z " fill="#202020" transform="translate(144,158)"/>
<path d="M0 0 C1.98 0 3.96 0 6 0 C5.67 1.32 5.34 2.64 5 4 C4.01 4 3.02 4 2 4 C1.34 2.68 0.68 1.36 0 0 Z " fill="#656565" transform="translate(35,146)"/>
<path d="M0 0 C0 0.66 0 1.32 0 2 C-1.32 2 -2.64 2 -4 2 C-4 2.66 -4 3.32 -4 4 C-4.99 4 -5.98 4 -7 4 C-7 3.01 -7 2.02 -7 1 C-4 0 -4 0 0 0 Z " fill="#858585" transform="translate(78,130)"/>
<path d="M0 0 C-0.66 1.32 -1.32 2.64 -2 4 C-3.32 4 -4.64 4 -6 4 C-6 3.01 -6 2.02 -6 1 C-3.92446352 0.4465236 -2.15634036 0 0 0 Z " fill="#242424" transform="translate(158,117)"/>
<path d="M0 0 C0 0.99 0 1.98 0 3 C-0.99 3 -1.98 3 -3 3 C-3 3.66 -3 4.32 -3 5 C-3.99 4.67 -4.98 4.34 -6 4 C-5.34 4 -4.68 4 -4 4 C-4 3.34 -4 2.68 -4 2 C-4.66 1.67 -5.32 1.34 -6 1 C-3 0 -3 0 0 0 Z " fill="#292929" transform="translate(125,85)"/>
<path d="M0 0 C2.97 0.495 2.97 0.495 6 1 C3.08235 2.9451 1.37462715 3.45276317 -2 4 C-1.34 2.68 -0.68 1.36 0 0 Z " fill="#5B5B5B" transform="translate(38,70)"/>
<path d="M0 0 C0.99 0 1.98 0 3 0 C3.33 1.98 3.66 3.96 4 6 C3.01 6 2.02 6 1 6 C0.67 4.02 0.34 2.04 0 0 Z " fill="#414141" transform="translate(156,56)"/>
<path d="M0 0 C0.99 0 1.98 0 3 0 C2.67 1.98 2.34 3.96 2 6 C1.01 6 0.02 6 -1 6 C-0.67 4.02 -0.34 2.04 0 0 Z " fill="#2A2A2A" transform="translate(36,55)"/>
</svg>
